<svg width="38" height="38" viewBox="0 0 38 38" fill="none" xmlns="http://www.w3.org/2000/svg">
<mask id="path-1-inside-1" fill="white">
<path fill-rule="evenodd" clip-rule="evenodd" d="M19 38C29.4934 38 38 29.4934 38 19C38 8.50659 29.4934 0 19 0C8.50659 0 0 8.50659 0 19C0 29.4934 8.50659 38 19 38ZM25.4625 10.9511L27.9335 13.4207C28.4096 13.8981 28.392 14.6936 27.8916 15.1942C27.8426 15.2422 27.7821 15.2768 27.7159 15.2947C25.383 15.8771 24.4816 15.8992 24.1038 15.8141L17.1624 22.7565L19.238 24.8317L16.704 27.3642C15.8789 28.1896 12.8666 28.8847 11.4339 27.4515C10.0001 26.0184 10.6916 23.0019 11.519 22.1753L14.0485 19.645L16.1683 21.7632L23.0887 14.8406C22.986 14.5014 22.9727 13.6384 23.5902 11.1688C23.6085 11.1025 23.6435 11.042 23.6918 10.9931C24.1933 10.4926 24.9864 10.4727 25.4625 10.9511ZM24.3424 15.0594C24.6561 15.1191 26.0723 14.8141 27.2907 14.4704C27.4354 14.2693 27.4398 14.013 27.2873 13.8594L25.0582 11.6296C24.9036 11.4749 24.6473 11.4793 24.4474 11.6274C24.1005 12.8539 23.7934 14.2848 23.8619 14.5787L24.3424 15.0594Z"/>
</mask>
<path fill-rule="evenodd" clip-rule="evenodd" d="M19 38C29.4934 38 38 29.4934 38 19C38 8.50659 29.4934 0 19 0C8.50659 0 0 8.50659 0 19C0 29.4934 8.50659 38 19 38ZM25.4625 10.9511L27.9335 13.4207C28.4096 13.8981 28.392 14.6936 27.8916 15.1942C27.8426 15.2422 27.7821 15.2768 27.7159 15.2947C25.383 15.8771 24.4816 15.8992 24.1038 15.8141L17.1624 22.7565L19.238 24.8317L16.704 27.3642C15.8789 28.1896 12.8666 28.8847 11.4339 27.4515C10.0001 26.0184 10.6916 23.0019 11.519 22.1753L14.0485 19.645L16.1683 21.7632L23.0887 14.8406C22.986 14.5014 22.9727 13.6384 23.5902 11.1688C23.6085 11.1025 23.6435 11.042 23.6918 10.9931C24.1933 10.4926 24.9864 10.4727 25.4625 10.9511ZM24.3424 15.0594C24.6561 15.1191 26.0723 14.8141 27.2907 14.4704C27.4354 14.2693 27.4398 14.013 27.2873 13.8594L25.0582 11.6296C24.9036 11.4749 24.6473 11.4793 24.4474 11.6274C24.1005 12.8539 23.7934 14.2848 23.8619 14.5787L24.3424 15.0594Z" fill="#BDD0DA"/>
<path d="M27.9335 13.4207L28.6416 12.7146L28.6404 12.7134L27.9335 13.4207ZM25.4625 10.9511L24.7537 11.6565L24.7556 11.6585L25.4625 10.9511ZM27.8916 15.1942L28.5919 15.9081L28.5988 15.9012L27.8916 15.1942ZM27.7159 15.2947L27.9581 16.265L27.9675 16.2626L27.9769 16.2601L27.7159 15.2947ZM24.1038 15.8141L24.3236 14.8385L23.7862 14.7175L23.3967 15.107L24.1038 15.8141ZM17.1624 22.7565L16.4553 22.0495L15.7482 22.7567L16.4554 23.4637L17.1624 22.7565ZM19.238 24.8317L19.9449 25.539L20.6525 24.8318L19.945 24.1245L19.238 24.8317ZM16.704 27.3642L15.9971 26.6569L15.9968 26.6572L16.704 27.3642ZM11.4339 27.4515L12.1411 26.7445L12.1409 26.7443L11.4339 27.4515ZM11.519 22.1753L12.2257 22.8828L12.2262 22.8823L11.519 22.1753ZM14.0485 19.645L14.7554 18.9376L14.0482 18.2309L13.3413 18.938L14.0485 19.645ZM16.1683 21.7632L15.4614 22.4706L16.1687 23.1773L16.8755 22.4702L16.1683 21.7632ZM23.0887 14.8406L23.7959 15.5476L24.2194 15.124L24.0458 14.5508L23.0887 14.8406ZM23.5902 11.1688L22.6263 10.9027L22.623 10.9144L22.6201 10.9263L23.5902 11.1688ZM23.6918 10.9931L22.9854 10.2853L22.9805 10.2902L23.6918 10.9931ZM27.2907 14.4704L27.5621 15.4329L27.8983 15.3381L28.1024 15.0545L27.2907 14.4704ZM24.3424 15.0594L23.6352 15.7664L23.853 15.9842L24.1556 16.0418L24.3424 15.0594ZM27.2873 13.8594L27.9971 13.155L27.9946 13.1524L27.2873 13.8594ZM25.0582 11.6296L24.351 12.3366L25.0582 11.6296ZM24.4474 11.6274L23.8522 10.8238L23.578 11.0269L23.4851 11.3553L24.4474 11.6274ZM23.8619 14.5787L22.888 14.8057L22.9528 15.0838L23.1547 15.2857L23.8619 14.5787ZM37 19C37 28.9411 28.9411 37 19 37V39C30.0457 39 39 30.0457 39 19H37ZM19 1C28.9411 1 37 9.05888 37 19H39C39 7.95431 30.0457 -1 19 -1V1ZM1 19C1 9.05888 9.05888 1 19 1V-1C7.95431 -1 -1 7.95431 -1 19H1ZM19 37C9.05888 37 1 28.9411 1 19H-1C-1 30.0457 7.95431 39 19 39V37ZM28.6404 12.7134L26.1694 10.2438L24.7556 11.6585L27.2266 14.128L28.6404 12.7134ZM28.5988 15.9012C29.4587 15.041 29.537 13.6124 28.6416 12.7146L27.2255 14.1269C27.2822 14.1838 27.3252 14.3463 27.1843 14.4872L28.5988 15.9012ZM27.9769 16.2601C28.2087 16.1974 28.4205 16.0762 28.5919 15.9081L27.1913 14.4803C27.2647 14.4083 27.3555 14.3563 27.4549 14.3294L27.9769 16.2601ZM23.8841 16.7896C24.2372 16.8692 24.6894 16.8703 25.2958 16.7976C25.9168 16.7231 26.7696 16.5616 27.9581 16.265L27.4738 14.3245C26.3293 14.6102 25.5649 14.7509 25.0576 14.8118C24.5356 14.8744 24.3482 14.8441 24.3236 14.8385L23.8841 16.7896ZM17.8696 23.4636L24.811 16.5211L23.3967 15.107L16.4553 22.0495L17.8696 23.4636ZM19.945 24.1245L17.8695 22.0494L16.4554 23.4637L18.531 25.5389L19.945 24.1245ZM17.4109 28.0715L19.9449 25.539L18.5311 24.1244L15.9971 26.6569L17.4109 28.0715ZM10.7267 28.1585C11.7484 29.1805 13.2245 29.3606 14.3908 29.2504C14.9961 29.1932 15.582 29.0538 16.0871 28.8632C16.5733 28.6797 17.0637 28.4189 17.4113 28.0712L15.9968 26.6572C15.9318 26.7222 15.7362 26.8579 15.3808 26.9921C15.0443 27.1191 14.6328 27.2186 14.2028 27.2593C13.2985 27.3447 12.5521 27.1556 12.1411 26.7445L10.7267 28.1585ZM10.8122 21.4679C10.4637 21.8161 10.2027 22.3073 10.0192 22.7943C9.82865 23.3002 9.68961 23.8868 9.63288 24.4927C9.52354 25.6603 9.70488 27.1372 10.727 28.1588L12.1409 26.7443C11.7292 26.3328 11.5394 25.5848 11.6242 24.6792C11.6645 24.2485 11.7638 23.8364 11.8908 23.4995C12.0249 23.1436 12.1606 22.9478 12.2257 22.8828L10.8122 21.4679ZM13.3413 18.938L10.8118 21.4683L12.2262 22.8823L14.7558 20.352L13.3413 18.938ZM16.8751 21.0558L14.7554 18.9376L13.3417 20.3523L15.4614 22.4706L16.8751 21.0558ZM22.3815 14.1336L15.4611 21.0562L16.8755 22.4702L23.7959 15.5476L22.3815 14.1336ZM22.6201 10.9263C22.3057 12.1837 22.143 13.066 22.0751 13.6966C22.0092 14.3085 22.022 14.7683 22.1316 15.1304L24.0458 14.5508C24.0527 14.5737 24.0074 14.4324 24.0636 13.9107C24.1178 13.4075 24.2572 12.6236 24.5603 11.4114L22.6201 10.9263ZM22.9805 10.2902C22.812 10.4608 22.6901 10.6716 22.6263 10.9027L24.5541 11.435C24.5269 11.5334 24.475 11.6233 24.4031 11.696L22.9805 10.2902ZM26.1714 10.2458C25.2714 9.34132 23.8432 9.42912 22.9854 10.2854L24.3983 11.7009C24.5434 11.5561 24.7015 11.6041 24.7537 11.6565L26.1714 10.2458ZM27.0192 13.508C26.4299 13.6742 25.795 13.8303 25.2766 13.9365C25.0163 13.9898 24.7976 14.028 24.6347 14.0493C24.4193 14.0774 24.427 14.0576 24.5293 14.077L24.1556 16.0418C24.4147 16.0911 24.7171 16.0555 24.8935 16.0325C25.1224 16.0026 25.3928 15.9542 25.6779 15.8958C26.2506 15.7785 26.9331 15.6103 27.5621 15.4329L27.0192 13.508ZM26.5776 14.5638C26.4449 14.4301 26.4003 14.2677 26.4004 14.1458C26.4006 14.0291 26.4388 13.9422 26.4789 13.8864L28.1024 15.0545C28.4469 14.5758 28.5878 13.7501 27.9971 13.155L26.5776 14.5638ZM24.351 12.3366L26.5801 14.5664L27.9946 13.1524L25.7654 10.9226L24.351 12.3366ZM25.0425 12.431C24.9849 12.4736 24.8941 12.5146 24.7723 12.5149C24.6448 12.5153 24.4822 12.4678 24.351 12.3366L25.7654 10.9226C25.1695 10.3265 24.3372 10.4646 23.8522 10.8238L25.0425 12.431ZM24.8358 14.3518C24.8584 14.4488 24.8508 14.503 24.8525 14.454C24.8536 14.4247 24.8577 14.3719 24.8679 14.2913C24.8881 14.1314 24.9256 13.9136 24.9788 13.6523C25.0847 13.1324 25.242 12.4925 25.4096 11.8995L23.4851 11.3553C23.306 11.9888 23.1363 12.6776 23.019 13.2532C22.9607 13.5397 22.9126 13.8115 22.8836 14.0408C22.8692 14.1549 22.8578 14.2716 22.8538 14.3817C22.8506 14.472 22.8483 14.6352 22.888 14.8057L24.8358 14.3518ZM25.0497 14.3524L24.5691 13.8717L23.1547 15.2857L23.6352 15.7664L25.0497 14.3524Z" fill="#BDD0DA" mask="url(#path-1-inside-1)"/>
</svg>
