<svg width="40" height="39" viewBox="0 0 40 39" fill="none" xmlns="http://www.w3.org/2000/svg">
<g clip-path="url(#clip0)">
<path fill-rule="evenodd" clip-rule="evenodd" d="M9.48053 27.6394C9.48053 29.9947 10.8313 29.5444 13.9832 29.5444H27.699C29.7079 29.5444 29.7425 28.6439 29.6386 26.7043C29.5347 25.1456 28.6342 24.7993 27.4565 24.2105C22.1573 21.5781 23.8544 21.4396 21.1875 22.2016C17.7931 23.206 17.4814 20.9893 15.6804 22.0284L11.1084 24.5222C9.61907 25.3535 9.51516 25.5959 9.51516 27.6394H9.48053ZM19.5596 0C24.9281 0 29.8118 2.18206 33.3446 5.71492C36.8775 9.24778 39.0596 14.1314 39.0596 19.5C39.0596 24.8686 36.8775 29.7522 33.3446 33.2851C29.8118 36.8179 24.9281 39 19.5596 39C14.191 39 9.30735 36.8179 5.77449 33.2851C2.24163 29.7522 0.0595703 24.8686 0.0595703 19.5C0.0595703 14.1314 2.24163 9.24778 5.77449 5.71492C9.30735 2.18206 14.191 0 19.5596 0ZM32.6173 6.44227C29.2922 3.11723 24.651 1.03908 19.5596 1.03908C14.4681 1.03908 9.86152 3.11723 6.50184 6.44227C3.1768 9.76732 1.09865 14.4085 1.09865 19.5C1.09865 24.5915 3.1768 29.198 6.50184 32.5577C9.82689 35.8828 14.4681 37.9609 19.5596 37.9609C24.651 37.9609 29.2576 35.8828 32.6173 32.5577C35.9423 29.2327 38.0205 24.5915 38.0205 19.5C38.0205 14.4085 35.9423 9.80195 32.6173 6.44227ZM18.278 9.62877C11.3855 11.7762 14.3642 23.0675 20.9104 21.0586C23.3695 20.2966 25.2745 17.4218 24.6164 14.0275C24.0969 11.3606 21.5338 8.5897 18.2434 9.62877H18.278Z" fill="#BFE9F9"/>
</g>
<defs>
<clipPath id="clip0">
<rect width="39" height="39" fill="white" transform="translate(0.0595703)"/>
</clipPath>
</defs>
</svg>
