<svg width="39" height="38" viewBox="0 0 39 38" fill="none" xmlns="http://www.w3.org/2000/svg">
<path d="M25.5455 8V10.7727H14.9545C13.5738 10.7727 12.4545 11.892 12.4545 13.2727V16.8182C12.4545 17.6466 13.1261 18.3182 13.9545 18.3182H14.1364C14.9648 18.3182 15.6364 17.6466 15.6364 16.8182V13.9545H25.5455V16.7273V17.7676L26.3578 17.1177L31.8123 12.7541L32.3004 12.3636L31.8123 11.9732L26.3578 7.60957L25.5455 6.95969V8ZM13.4545 29.8182V27.0455H24.0455C25.4262 27.0455 26.5455 25.9262 26.5455 24.5455V21C26.5455 20.1716 25.8739 19.5 25.0455 19.5H24.8636C24.0352 19.5 23.3636 20.1716 23.3636 21V23.8636H13.4545V21.0909V20.0506L12.6422 20.7005L7.18765 25.0641L6.69961 25.4545L7.18765 25.845L12.6422 30.2086L13.4545 30.8585V29.8182ZM38 19C38 29.2173 29.7173 37.5 19.5 37.5C9.28273 37.5 1 29.2173 1 19C1 8.78273 9.28273 0.5 19.5 0.5C29.7173 0.5 38 8.78273 38 19Z" fill="#BDD0DA" stroke="#BDD0DA"/>
</svg>
