<svg width="38" height="38" viewBox="0 0 38 38" fill="none" xmlns="http://www.w3.org/2000/svg">
<path fill-rule="evenodd" clip-rule="evenodd" d="M19 38C29.4934 38 38 29.4934 38 19C38 8.50659 29.4934 0 19 0C8.50659 0 0 8.50659 0 19C0 29.4934 8.50659 38 19 38ZM20.2254 25.4491C21.6836 26.2638 22.6574 26.5145 23.3507 26.5145C23.7134 26.5184 24.0722 26.4399 24.4001 26.2848C25.0386 25.9875 25.4211 25.5503 25.7986 24.9857C26.0104 24.6647 26.1922 24.325 26.3416 23.9707C26.3546 23.9401 26.3671 23.9122 26.3787 23.8863L26.3846 23.873L26.3872 23.8671C26.4657 23.6896 26.5821 23.4264 26.4556 23.0917C26.3708 22.8669 26.1971 22.6666 25.8856 22.3527C25.2453 21.7067 23.7853 20.8362 23.1461 20.5138L23.1405 20.511C22.6538 20.2654 22.3589 20.1167 22.0146 20.1167H22.0125C21.6154 20.1167 21.3164 20.316 20.9378 20.5976C20.8898 20.6329 20.8436 20.6683 20.7985 20.7028C20.7906 20.7088 20.7827 20.7148 20.7748 20.7208C20.4083 21.0007 20.3036 21.0625 20.1125 21.0216C19.7428 20.9428 18.6781 20.3895 17.7075 19.421C16.7369 18.4525 16.1463 17.3562 16.0671 16.9879C16.028 16.8047 16.0874 16.7021 16.3576 16.3469C16.4024 16.288 16.4485 16.2272 16.4951 16.1637C16.7433 15.8252 16.9479 15.5116 16.9479 15.105C16.9475 14.7585 16.8036 14.4494 16.586 13.9821L16.5845 13.9789C16.2592 13.2828 15.3774 11.8654 14.7321 11.229C14.4175 10.9183 14.2165 10.7453 13.9913 10.6608C13.6539 10.5329 13.3876 10.6526 13.2118 10.7318C13.1823 10.745 13.1493 10.7595 13.1138 10.7748C12.7589 10.9231 12.4184 11.1038 12.0967 11.3146C11.5302 11.6928 11.092 12.0739 10.7951 12.711C10.5458 13.2441 10.3227 14.4913 11.6311 16.8708C12.7892 18.9781 13.6166 20.0784 15.3171 21.7777C17.0807 23.5367 18.4522 24.4547 20.2254 25.4491Z" fill="#61D6F2"/>
</svg>
