<svg width="38" height="38" viewBox="0 0 38 38" fill="none" xmlns="http://www.w3.org/2000/svg">
<path d="M19 38C29.4934 38 38 29.4934 38 19C38 8.50659 29.4934 0 19 0C8.50659 0 0 8.50659 0 19C0 29.4934 8.50659 38 19 38Z" fill="#61D6F2"/>
<path d="M27.9046 18.0571C27.9046 16.9571 27.0141 16.3809 25.8093 16.3809H22.2998C22.5617 15.4381 22.6665 14.5476 22.6665 13.7619C22.6665 10.7238 21.8284 10.0952 21.095 10.0952C20.6236 10.0952 20.2569 10.1476 19.7855 10.4095C19.6284 10.5143 19.576 10.619 19.5236 10.7762L18.9998 13.6047C18.4236 15.0714 17.0093 16.3809 15.8569 17.2714V24.7619C16.276 24.7619 16.695 24.9714 17.2188 25.2333C17.795 25.4952 18.3712 25.8095 18.9998 25.8095H23.976C25.0236 25.8095 25.8093 24.9714 25.8093 24.2381C25.8093 24.0809 25.8093 23.9762 25.7569 23.8714C26.3855 23.6095 26.8569 23.0857 26.8569 22.4047C26.8569 22.0905 26.8046 21.8285 26.6998 21.5666C27.1188 21.3047 27.4855 20.8333 27.4855 20.3095C27.4855 19.9952 27.3284 19.6809 27.1712 19.419C27.5903 19.1047 27.9046 18.5809 27.9046 18.0571Z" fill="white"/>
<path d="M13.2383 25.8094H10.0955C9.51928 25.8094 9.04785 25.338 9.04785 24.7618V17.4285C9.04785 16.8523 9.51928 16.3809 10.0955 16.3809H13.2383C13.8145 16.3809 14.2859 16.8523 14.2859 17.4285V24.7618C14.2859 25.338 13.8145 25.8094 13.2383 25.8094Z" fill="white"/>
</svg>
