<svg width="38" height="38" viewBox="0 0 38 38" fill="none" xmlns="http://www.w3.org/2000/svg">
<path fill-rule="evenodd" clip-rule="evenodd" d="M19 38C29.4934 38 38 29.4934 38 19C38 8.50659 29.4934 0 19 0C8.50659 0 0 8.50659 0 19C0 29.4934 8.50659 38 19 38ZM25.4625 10.9511L27.9335 13.4207C28.4096 13.8981 28.392 14.6936 27.8916 15.1942C27.8426 15.2422 27.7821 15.2768 27.7159 15.2947C25.383 15.8771 24.4816 15.8992 24.1038 15.8141L17.1624 22.7565L19.238 24.8317L16.704 27.3642C15.8789 28.1896 12.8666 28.8847 11.4339 27.4515C10.0001 26.0184 10.6916 23.0019 11.519 22.1753L14.0485 19.645L16.1683 21.7632L23.0887 14.8406C22.986 14.5014 22.9727 13.6384 23.5902 11.1688C23.6085 11.1025 23.6435 11.042 23.6918 10.9931C24.1933 10.4926 24.9864 10.4727 25.4625 10.9511ZM24.3424 15.0594C24.6561 15.1191 26.0723 14.8141 27.2907 14.4704C27.4354 14.2693 27.4398 14.013 27.2873 13.8594L25.0582 11.6296C24.9036 11.4749 24.6473 11.4793 24.4474 11.6274C24.1005 12.8539 23.7934 14.2848 23.8619 14.5787L24.3424 15.0594Z" fill="#61D6F2"/>
</svg>
