<svg width="39" height="38" viewBox="0 0 39 38" fill="none" xmlns="http://www.w3.org/2000/svg">
<path fill-rule="evenodd" clip-rule="evenodd" d="M19.5 38C29.9934 38 38.5 29.4934 38.5 19C38.5 8.50659 29.9934 0 19.5 0C9.00659 0 0.5 8.50659 0.5 19C0.5 29.4934 9.00659 38 19.5 38ZM15.6364 13.4545C15.3602 13.4545 15.1364 13.6784 15.1364 13.9545V16.8182C15.1364 17.3705 14.6886 17.8182 14.1364 17.8182H13.9545C13.4023 17.8182 12.9545 17.3705 12.9545 16.8182V13.2727C12.9545 12.1682 13.85 11.2727 14.9545 11.2727H26.0455V8L31.5 12.3636L26.0455 16.7273V13.4545H15.6364ZM23.3636 24.3636C23.6398 24.3636 23.8636 24.1398 23.8636 23.8636V21C23.8636 20.4477 24.3114 20 24.8636 20H25.0455C25.5977 20 26.0455 20.4477 26.0455 21V24.5455C26.0455 25.65 25.15 26.5455 24.0455 26.5455H12.9545V29.8182L7.5 25.4545L12.9545 21.0909V24.3636H23.3636Z" fill="#61D6F2"/>
</svg>
