<svg width="38" height="38" viewBox="0 0 38 38" fill="none" xmlns="http://www.w3.org/2000/svg">
<path d="M19 38C29.4934 38 38 29.4934 38 19C38 8.50659 29.4934 0 19 0C8.50659 0 0 8.50659 0 19C0 29.4934 8.50659 38 19 38Z" fill="#61D6F2"/>
<path d="M26.5268 29.6666H11.4735C11.3247 29.6675 11.1771 29.6391 11.0393 29.5829C10.9014 29.5268 10.776 29.444 10.6702 29.3394C10.5643 29.2348 10.4801 29.1103 10.4223 28.9732C10.3645 28.836 10.3344 28.6888 10.3335 28.54V11.46C10.3375 11.2951 10.3763 11.1329 10.4476 10.9841C10.5188 10.8353 10.6208 10.7033 10.7468 10.5968C10.8728 10.4904 11.02 10.4118 11.1786 10.3664C11.3371 10.321 11.5036 10.3097 11.6668 10.3333H13.0002V11.6666H11.6668V28.3333H26.3335V11.6666H25.0002V10.3333H26.5002C26.6512 10.3289 26.8016 10.3547 26.9426 10.4092C27.0835 10.4638 27.2121 10.5459 27.3208 10.6509C27.4295 10.7559 27.5161 10.8815 27.5755 11.0205C27.635 11.1594 27.666 11.3089 27.6668 11.46V28.54C27.666 28.6888 27.6358 28.836 27.578 28.9732C27.5202 29.1103 27.436 29.2348 27.3302 29.3394C27.2243 29.444 27.0989 29.5268 26.961 29.5829C26.8232 29.6391 26.6757 29.6675 26.5268 29.6666Z" fill="white"/>
<path d="M18.1067 24.1734L14.5334 20.6C14.425 20.4717 14.369 20.3072 14.3767 20.1395C14.3843 19.9717 14.455 19.813 14.5746 19.6951C14.6942 19.5772 14.8539 19.5087 15.0217 19.5035C15.1896 19.4982 15.3533 19.5565 15.48 19.6667L18.1067 22.2934L23.8667 16.5334C23.9942 16.4241 24.1583 16.3671 24.3261 16.3735C24.4938 16.38 24.653 16.4496 24.7717 16.5683C24.8905 16.687 24.96 16.8462 24.9665 17.014C24.973 17.1818 24.9159 17.3458 24.8067 17.4734L18.1067 24.1734Z" fill="white"/>
<path d="M24.3332 14.3334H13.6665V11.8867C13.6683 11.4753 13.8325 11.0812 14.1234 10.7903C14.4143 10.4993 14.8084 10.3351 15.2198 10.3334H16.4132C16.56 9.75974 16.8936 9.25133 17.3614 8.88826C17.8291 8.52519 18.4044 8.32812 18.9965 8.32812C19.5886 8.32812 20.1639 8.52519 20.6316 8.88826C21.0994 9.25133 21.433 9.75974 21.5798 10.3334H22.7732C23.1858 10.3334 23.5815 10.4968 23.8739 10.7879C24.1663 11.079 24.3314 11.4741 24.3332 11.8867V14.3334ZM14.9998 13H22.9998V11.8867C22.9998 11.8283 22.9767 11.7724 22.9354 11.7311C22.8941 11.6899 22.8382 11.6667 22.7798 11.6667H20.3332V11C20.3332 10.6464 20.1927 10.3073 19.9426 10.0572C19.6926 9.80716 19.3535 9.66669 18.9998 9.66669C18.6462 9.66669 18.3071 9.80716 18.057 10.0572C17.807 10.3073 17.6665 10.6464 17.6665 11V11.6667H15.2198C15.1909 11.6667 15.1623 11.6724 15.1356 11.6834C15.109 11.6945 15.0847 11.7107 15.0643 11.7311C15.0438 11.7516 15.0276 11.7758 15.0166 11.8025C15.0055 11.8292 14.9998 11.8578 14.9998 11.8867V13Z" fill="white"/>
</svg>
