<svg width="16" height="16" viewBox="0 0 16 16" fill="none" xmlns="http://www.w3.org/2000/svg">
<path d="M12.0479 3.83264C11.6734 1.84205 10.0047 0.347656 8.00004 0.347656C6.40845 0.347656 5.02613 1.29391 4.33773 2.67867C2.68005 2.86331 1.39136 4.33462 1.39136 6.1175C1.39136 7.31848 1.97719 8.378 2.86537 8.99904V7.40262C2.63006 7.03536 2.4928 6.5933 2.4928 6.1175C2.4928 4.84236 3.4786 3.80956 4.6957 3.80956H5.08671C5.45019 2.47673 6.61222 1.50162 8.00004 1.50162C9.67424 1.50162 11.029 2.92101 11.029 4.67504V4.96353H11.8551C12.7693 4.96353 13.5073 5.73669 13.5073 6.69448C13.5073 7.11116 13.3676 7.49289 13.1345 7.79123V9.2494C14.0108 8.76646 14.6087 7.80319 14.6087 6.69448C14.6087 5.17124 13.4797 3.9365 12.0479 3.83264Z" fill="#8394A5"/>
<path d="M8.00002 8.77481L9.64833 9.69576V11.5377L8.00002 12.4586L6.35171 11.5377V9.69576L8.00002 8.77481Z" fill="#8394A5"/>
<path fill-rule="evenodd" clip-rule="evenodd" d="M8.8765 7.65683C8.91431 7.55527 8.93498 7.44536 8.93498 7.33063C8.93498 6.81427 8.51638 6.39568 8.00002 6.39568C7.48366 6.39568 7.06507 6.81427 7.06507 7.33063C7.06507 7.44537 7.08573 7.55527 7.12354 7.65683L5.82842 8.38045C5.65713 8.18711 5.40698 8.06524 5.12837 8.06524C4.61201 8.06524 4.19341 8.48384 4.19341 9.0002C4.19341 9.46101 4.52678 9.84395 4.9655 9.92102V11.2182C4.52678 11.2952 4.19341 11.6782 4.19341 12.139C4.19341 12.6553 4.61201 13.0739 5.12837 13.0739C5.41182 13.0739 5.66581 12.9478 5.83727 12.7486L7.12827 13.4699C7.08746 13.5749 7.06507 13.6891 7.06507 13.8085C7.06507 14.3249 7.48366 14.7435 8.00002 14.7435C8.51638 14.7435 8.93498 14.3249 8.93498 13.8085C8.93498 13.6891 8.91259 13.5749 8.87177 13.4699L10.1628 12.7486C10.3342 12.9478 10.5882 13.0739 10.8717 13.0739C11.388 13.0739 11.8066 12.6553 11.8066 12.139C11.8066 11.6782 11.4733 11.2952 11.0345 11.2182V9.92102C11.4733 9.84395 11.8066 9.46101 11.8066 9.0002C11.8066 8.48384 11.388 8.06524 10.8717 8.06524C10.5931 8.06524 10.3429 8.18711 10.1716 8.38045L8.8765 7.65683ZM6.06333 9.0002C6.06333 9.475 5.70941 9.86713 5.251 9.92719V11.212C5.70941 11.272 6.06333 11.6642 6.06333 12.139C6.06333 12.2693 6.03667 12.3934 5.98851 12.5061L7.27127 13.2228C7.44264 13.0098 7.70542 12.8736 8.00002 12.8736C8.29462 12.8736 8.5574 13.0098 8.72877 13.2228L10.0115 12.5061C9.96338 12.3934 9.93672 12.2693 9.93672 12.139C9.93672 11.6642 10.2906 11.272 10.749 11.212V9.92719C10.2906 9.86713 9.93672 9.475 9.93672 9.0002C9.93672 8.8652 9.96533 8.73689 10.0168 8.62099L8.73706 7.90595C8.56594 8.12487 8.29942 8.26559 8.00002 8.26559C7.70063 8.26559 7.4341 8.12487 7.26298 7.90596L5.98323 8.62099C6.03471 8.73689 6.06333 8.8652 6.06333 9.0002Z" fill="#8394A5"/>
</svg>
