<svg width="16" height="16" viewBox="0 0 16 16" fill="none" xmlns="http://www.w3.org/2000/svg">
<path fill-rule="evenodd" clip-rule="evenodd" d="M1.98763 8.74594C1.65832 8.74594 1.39136 9.0129 1.39136 9.34221V12.3236C1.39136 12.6529 1.65832 12.9198 1.98763 12.9198H13.3168C13.6461 12.9198 13.9131 12.6529 13.9131 12.3236V9.34221C13.9131 9.0129 13.6461 8.74594 13.3168 8.74594H1.98763ZM4.969 10.5348H2.5839V11.131H4.969V10.5348Z" fill="#8394A5"/>
<path d="M12.0874 8.14966C12.1117 7.95433 12.1243 7.75532 12.1243 7.55339C12.1243 4.91889 9.98859 2.7832 7.35409 2.7832C4.71959 2.7832 2.5839 4.91889 2.5839 7.55339C2.5839 7.75532 2.59646 7.95433 2.62081 8.14966H5.66706C5.60114 7.96316 5.56527 7.76246 5.56527 7.55339C5.56527 6.56545 6.36615 5.76457 7.35409 5.76457C8.34203 5.76457 9.14291 6.56545 9.14291 7.55339C9.14291 7.76246 9.10704 7.96316 9.04112 8.14966H12.0874Z" fill="#8394A5"/>
<path d="M8.3871 8.14966C8.48857 7.97425 8.54664 7.7706 8.54664 7.55339C8.54664 6.89476 8.01272 6.36084 7.35409 6.36084C6.69547 6.36084 6.16154 6.89476 6.16154 7.55339C6.16154 7.7706 6.21961 7.97425 6.32108 8.14966H8.3871Z" fill="#8394A5"/>
</svg>
