<svg width="24" height="23" viewBox="0 0 24 23" fill="none" xmlns="http://www.w3.org/2000/svg">
<g filter="url(#filter0_d)">
<path d="M12.3536 1.73913C12.3536 1.75379 12.3534 1.76841 12.3531 1.78299C13.6474 2.20827 14.7322 3.0955 15.4124 4.24966H14.3245C13.7644 3.5143 12.9907 2.95046 12.0958 2.65072C11.7896 3.14728 11.2407 3.47826 10.6145 3.47826C9.98825 3.47826 9.43933 3.14728 9.13311 2.65072C7.28519 3.26971 5.9536 5.01497 5.9536 7.07125L5.95362 7.08434C6.81292 7.19003 7.47826 7.9225 7.47826 8.81038C7.47826 9.27595 7.29531 9.6988 6.99739 10.0109C7.5126 10.6441 8.19073 11.1394 8.9679 11.4329V12.3889C7.86522 12.0478 6.90907 11.3732 6.21732 10.4829C6.06539 10.5263 5.90497 10.5495 5.73913 10.5495C4.77864 10.5495 4 9.77087 4 8.81038C4 8.09431 4.43276 7.47932 5.05101 7.21269C5.04984 7.16568 5.04925 7.11853 5.04925 7.07125C5.04925 4.60481 6.65373 2.51311 8.87588 1.78299C8.87552 1.76841 8.87534 1.75379 8.87534 1.73913C8.87534 0.778635 9.65397 0 10.6145 0C11.575 0 12.3536 0.778635 12.3536 1.73913Z" fill="#8394A5"/>
<path fill-rule="evenodd" clip-rule="evenodd" d="M18.9772 5.07702H10.5279C10.3645 5.07702 10.2308 5.21787 10.2308 5.39002V7.39546C10.2308 7.56761 10.3645 7.70846 10.5279 7.70846H18.9772C19.1406 7.70846 19.2743 7.56761 19.2743 7.39546V5.39002C19.2743 5.21787 19.1406 5.07702 18.9772 5.07702ZM18.4699 6.08086H17.2835V6.70462H18.4699V6.08086ZM16.9121 6.08086H15.7235V6.70462H16.9121V6.08086Z" fill="#8394A5"/>
<path fill-rule="evenodd" clip-rule="evenodd" d="M18.9772 8.28304H10.5279C10.3645 8.28304 10.2308 8.42389 10.2308 8.59604V10.6015C10.2308 10.7736 10.3645 10.9145 10.5279 10.9145H18.9772C19.1406 10.9145 19.2743 10.7736 19.2743 10.6015V8.59604C19.2743 8.42389 19.1406 8.28304 18.9772 8.28304ZM18.4699 9.28688H17.2835V9.91288H18.4699V9.28688Z" fill="#8394A5"/>
<path fill-rule="evenodd" clip-rule="evenodd" d="M18.9772 11.4891H10.5279C10.3645 11.4891 10.2308 11.6299 10.2308 11.8021V13.8075C10.2308 13.9797 10.3645 14.1205 10.5279 14.1205H18.9772C19.1406 14.1205 19.2743 13.9797 19.2743 13.8075V11.8021C19.2743 11.6299 19.1406 11.4891 18.9772 11.4891ZM18.4699 12.4929H17.2835V13.1189H18.4699V12.4929Z" fill="#8394A5"/>
</g>
<defs>
<filter id="filter0_d" x="0" y="0" width="24" height="24" filterUnits="userSpaceOnUse" color-interpolation-filters="sRGB">
<feFlood flood-opacity="0" result="BackgroundImageFix"/>
<feColorMatrix in="SourceAlpha" type="matrix" values="0 0 0 0 0 0 0 0 0 0 0 0 0 0 0 0 0 0 127 0"/>
<feOffset dy="4"/>
<feGaussianBlur stdDeviation="2"/>
<feColorMatrix type="matrix" values="0 0 0 0 0 0 0 0 0 0 0 0 0 0 0 0 0 0 0.25 0"/>
<feBlend mode="normal" in2="BackgroundImageFix" result="effect1_dropShadow"/>
<feBlend mode="normal" in="SourceGraphic" in2="effect1_dropShadow" result="shape"/>
</filter>
</defs>
</svg>
