<svg width="16" height="16" viewBox="0 0 16 16" fill="none" xmlns="http://www.w3.org/2000/svg">
<path d="M8.00004 1.39062C10.0047 1.39062 11.6734 2.88501 12.0479 4.87561C13.4797 4.97947 14.6087 6.21421 14.6087 7.73745C14.6087 9.15771 13.6275 10.3393 12.337 10.5783V9.39397C13.0152 9.17851 13.5073 8.51953 13.5073 7.73745C13.5073 6.77966 12.7693 6.0065 11.8551 6.0065H11.029V5.71801C11.029 3.96397 9.67424 2.54459 8.00004 2.54459C6.61222 2.54459 5.45019 3.5197 5.08671 4.85253H4.6957C3.4786 4.85253 2.4928 5.88533 2.4928 7.16047C2.4928 8.15003 3.08649 8.99364 3.92124 9.32188V10.5265C2.4711 10.1606 1.39136 8.79092 1.39136 7.16047C1.39136 5.37759 2.68005 3.90628 4.33773 3.72164C5.02613 2.33688 6.40845 1.39062 8.00004 1.39062Z" fill="#8394A5"/>
<path d="M11.3018 11.8088H11.8685C12.3899 11.8088 12.8131 12.2355 12.8131 12.7612C12.8131 13.2869 12.3899 13.7136 11.8685 13.7136H11.3018V15.2374C11.3018 15.6565 10.9618 15.9993 10.5462 15.9993H9.11041V15.4279C9.11041 14.8603 8.65324 14.3993 8.09028 14.3993C7.52731 14.3993 7.07014 14.8603 7.07014 15.4279V15.9993H5.6344C5.21879 15.9993 4.87875 15.6565 4.87875 15.2374V13.7898H5.44549C6.00845 13.7898 6.46562 13.3288 6.46562 12.7612C6.46562 12.1936 6.00845 11.7327 5.44549 11.7327H4.88253V10.285C4.88253 9.86599 5.21879 9.52313 5.6344 9.52313H7.14571V8.9517C7.14571 8.42599 7.56887 7.99932 8.09028 7.99932C8.61168 7.99932 9.03484 8.42599 9.03484 8.9517V9.52313H10.5462C10.9618 9.52313 11.3018 9.86599 11.3018 10.285V11.8088Z" fill="#8394A5"/>
</svg>
