<svg width="16" height="16" viewBox="0 0 16 16" fill="none" xmlns="http://www.w3.org/2000/svg">
<path fill-rule="evenodd" clip-rule="evenodd" d="M4.96894 1.04297C7.7128 1.04297 9.93789 2.15502 9.93789 3.52744C9.93789 3.54942 9.93181 3.57049 9.9257 3.59166C9.92077 3.60877 9.91581 3.62595 9.91404 3.64371H9.93789V6.76308H8.9441V5.00421C7.74111 5.70953 6.36266 6.05896 4.96894 6.01191C3.57562 6.06017 2.19719 5.71211 0.993789 5.00819V12.4616L1.0236 12.5918C1.12929 13.0467 2.34744 13.8322 4.44071 13.9478V14.9425C2.13201 14.8236 0.314468 13.9338 0.0556522 12.8154L0 12.4606V3.64371H0.0238509C0.022074 3.62595 0.0171202 3.60877 0.0121845 3.59166C0.00607833 3.57049 0 3.54942 0 3.52744C0 2.15502 2.22509 1.04297 4.96894 1.04297ZM8.9441 3.52744C8.9441 3.02657 7.39578 2.06856 4.96894 2.06856C2.54211 2.06856 0.993789 3.03055 0.993789 3.52744C0.993789 4.02434 2.54211 4.98632 4.96894 4.98632C7.39578 4.98632 8.9441 4.02831 8.9441 3.52744Z" fill="#8394A5"/>
<path d="M12.9988 8.75936H9.33109L8.67797 8.10625C8.64249 8.07066 8.60033 8.04244 8.55391 8.0232C8.50748 8.00397 8.45772 7.99409 8.40747 7.99414H6.87703C6.45502 7.99414 6.11182 8.33734 6.11182 8.75936V14.1159C6.11182 14.5379 6.45502 14.8811 6.87703 14.8811H12.9988C13.4208 14.8811 13.764 14.5379 13.764 14.1159V9.52458C13.764 9.10256 13.4208 8.75936 12.9988 8.75936Z" fill="#8394A5"/>
</svg>
