<svg width="16" height="16" viewBox="0 0 16 16" fill="none" xmlns="http://www.w3.org/2000/svg">
<path d="M8.3536 1.73913C8.3536 1.75379 8.35342 1.76841 8.35306 1.78298C9.64741 2.20827 10.7322 3.0955 11.4124 4.24966H10.3245C9.76443 3.5143 8.99067 2.95046 8.09583 2.65072C7.78961 3.14728 7.24069 3.47826 6.61447 3.47826C5.98825 3.47826 5.43933 3.14728 5.13311 2.65072C3.28519 3.26971 1.9536 5.01497 1.9536 7.07125L1.95362 7.08434C2.81292 7.19003 3.47826 7.9225 3.47826 8.81038C3.47826 9.27595 3.29531 9.69879 2.99739 10.0109C3.5126 10.6441 4.19073 11.1394 4.9679 11.4329V12.3889C3.86522 12.0478 2.90907 11.3732 2.21732 10.4829C2.06539 10.5263 1.90497 10.5495 1.73913 10.5495C0.778635 10.5495 0 9.77087 0 8.81038C0 8.09431 0.432764 7.47932 1.05102 7.21269C1.04984 7.16568 1.04925 7.11853 1.04925 7.07125C1.04925 4.60481 2.65373 2.51311 4.87588 1.78299C4.87552 1.76841 4.87534 1.75379 4.87534 1.73913C4.87534 0.778635 5.65398 0 6.61447 0C7.57497 0 8.3536 0.778635 8.3536 1.73913Z" fill="#8394A5"/>
<path d="M10.0783 5.99951C8.16538 5.99951 6.61447 6.4264 6.61447 6.95292C6.61447 6.96224 6.61507 6.97115 6.61606 6.98026H6.61447V8.71765C6.61447 9.24437 8.16538 9.67126 10.0783 9.67126C11.9915 9.67126 13.5424 9.24437 13.5424 8.71765V6.98026H13.5408C13.5418 6.97115 13.5424 6.96224 13.5424 6.95292C13.5424 6.4264 11.9915 5.99951 10.0783 5.99951Z" fill="#8394A5"/>
<path d="M13.539 9.75064L13.5325 9.75499C13.3158 9.89584 13.0205 10.0185 12.6543 10.1193C11.9599 10.3105 11.045 10.4157 10.0783 10.4157C9.11166 10.4157 8.19692 10.3105 7.5026 10.1193C7.1364 10.0185 6.84102 9.89584 6.62439 9.75499L6.61784 9.75064C6.61546 9.76431 6.61447 9.77819 6.61447 9.79207C6.61447 9.80139 6.61507 9.8103 6.61606 9.81962H6.61447V11.5568C6.61447 12.0835 8.16538 12.5104 10.0783 12.5104C11.9915 12.5104 13.5424 12.0835 13.5424 11.5568V9.81962H13.5408C13.5418 9.8103 13.5424 9.80139 13.5424 9.79207C13.5424 9.77819 13.5414 9.76431 13.539 9.75064Z" fill="#8394A5"/>
<path d="M13.5325 12.3441L13.539 12.3397C13.5414 12.3534 13.5424 12.3673 13.5424 12.3812C13.5424 12.3905 13.5418 12.3994 13.5408 12.4087H13.5424V14.1459C13.5424 14.6726 11.9915 15.0995 10.0783 15.0995C8.16538 15.0995 6.61447 14.6726 6.61447 14.1459V12.4087H6.61606C6.61507 12.3994 6.61447 12.3905 6.61447 12.3812C6.61447 12.3673 6.61546 12.3534 6.61784 12.3397L6.62439 12.3441C6.84102 12.4849 7.1364 12.6076 7.5026 12.7084C8.19692 12.8996 9.11166 13.0048 10.0783 13.0048C11.045 13.0048 11.9599 12.8996 12.6543 12.7084C13.0205 12.6076 13.3158 12.4849 13.5325 12.3441Z" fill="#8394A5"/>
</svg>
