<svg width="16" height="16" viewBox="0 0 16 16" fill="none" xmlns="http://www.w3.org/2000/svg">
<path d="M8.3536 1.73913C8.3536 1.75379 8.35342 1.76841 8.35306 1.78299C9.6474 2.20827 10.7322 3.0955 11.4124 4.24966H10.3245C9.76443 3.5143 8.99067 2.95046 8.09583 2.65072C7.78961 3.14728 7.24069 3.47826 6.61447 3.47826C5.98825 3.47826 5.43933 3.14728 5.13311 2.65072C3.28519 3.26971 1.9536 5.01497 1.9536 7.07125L1.95362 7.08434C2.81292 7.19003 3.47826 7.9225 3.47826 8.81038C3.47826 9.27595 3.29531 9.6988 2.99739 10.0109C3.5126 10.6441 4.19073 11.1394 4.9679 11.4329V12.3889C3.86522 12.0478 2.90907 11.3732 2.21732 10.4829C2.06539 10.5263 1.90497 10.5495 1.73913 10.5495C0.778635 10.5495 0 9.77087 0 8.81038C0 8.09431 0.432764 7.47932 1.05101 7.21269C1.04984 7.16568 1.04925 7.11853 1.04925 7.07125C1.04925 4.60481 2.65373 2.51311 4.87588 1.78299C4.87552 1.76841 4.87534 1.75379 4.87534 1.73913C4.87534 0.778635 5.65397 0 6.61447 0C7.57496 0 8.3536 0.778635 8.3536 1.73913Z" fill="white"/>
<path fill-rule="evenodd" clip-rule="evenodd" d="M14.9772 5.07702H6.52794C6.36452 5.07702 6.23081 5.21787 6.23081 5.39002V7.39546C6.23081 7.56761 6.36452 7.70846 6.52794 7.70846H14.9772C15.1406 7.70846 15.2743 7.56761 15.2743 7.39546V5.39002C15.2743 5.21787 15.1406 5.07702 14.9772 5.07702ZM14.4699 6.08086H13.2835V6.70462H14.4699V6.08086ZM12.9121 6.08086H11.7235V6.70462H12.9121V6.08086Z" fill="white"/>
<path fill-rule="evenodd" clip-rule="evenodd" d="M14.9772 8.28304H6.52794C6.36452 8.28304 6.23081 8.42389 6.23081 8.59604V10.6015C6.23081 10.7736 6.36452 10.9145 6.52794 10.9145H14.9772C15.1406 10.9145 15.2743 10.7736 15.2743 10.6015V8.59604C15.2743 8.42389 15.1406 8.28304 14.9772 8.28304ZM14.4699 9.28688H13.2835V9.91288H14.4699V9.28688Z" fill="white"/>
<path fill-rule="evenodd" clip-rule="evenodd" d="M14.9772 11.4891H6.52794C6.36452 11.4891 6.23081 11.6299 6.23081 11.8021V13.8075C6.23081 13.9797 6.36452 14.1205 6.52794 14.1205H14.9772C15.1406 14.1205 15.2743 13.9797 15.2743 13.8075V11.8021C15.2743 11.6299 15.1406 11.4891 14.9772 11.4891ZM14.4699 12.4929H13.2835V13.1189H14.4699V12.4929Z" fill="white"/>
</svg>
