<svg width="16" height="16" viewBox="0 0 16 16" fill="none" xmlns="http://www.w3.org/2000/svg">
<path d="M8.59754 2.7832C6.15455 2.7832 4.17392 3.30534 4.17392 3.94934C4.17392 3.96074 4.17468 3.97163 4.17595 3.98278H4.17392V6.10782C4.17392 6.75207 6.15455 7.27421 8.59754 7.27421C11.0408 7.27421 13.0214 6.75207 13.0214 6.10782V3.98278H13.0194C13.0206 3.97163 13.0214 3.96074 13.0214 3.94934C13.0214 3.30534 11.0408 2.7832 8.59754 2.7832Z" fill="white"/>
<path d="M13.0171 7.3713C13.0143 7.37307 13.0115 7.37485 13.0087 7.37662C12.7321 7.54889 12.3549 7.69887 11.8872 7.82225C11.0005 8.05609 9.83208 8.18479 8.59754 8.18479C7.36303 8.18479 6.19484 8.05609 5.30814 7.82225C4.84047 7.69887 4.46324 7.54889 4.18659 7.37662C4.1838 7.37485 4.18101 7.37307 4.17823 7.3713C4.17519 7.38802 4.17392 7.405 4.17392 7.42197C4.17392 7.43337 4.17468 7.44426 4.17595 7.45566H4.17392V9.58045C4.17392 10.2247 6.15455 10.7468 8.59754 10.7468C11.0408 10.7468 13.0214 10.2247 13.0214 9.58045V7.45566H13.0194C13.0207 7.44426 13.0214 7.43337 13.0214 7.42197C13.0214 7.405 13.0201 7.38802 13.0171 7.3713Z" fill="white"/>
<path d="M13.0171 10.5381C13.0143 10.5399 13.0115 10.5416 13.0087 10.5434C12.7321 10.7157 12.3549 10.8657 11.8872 10.989C11.0005 11.2229 9.83208 11.3516 8.59754 11.3516C7.36303 11.3516 6.19484 11.2229 5.30814 10.989C4.84047 10.8657 4.46324 10.7157 4.18659 10.5434C4.1838 10.5416 4.18101 10.5399 4.17823 10.5381C4.17519 10.5548 4.17392 10.5718 4.17392 10.5888C4.17392 10.6002 4.17468 10.6111 4.17595 10.6225H4.17392V12.7472C4.17392 13.3915 6.15455 13.9136 8.59754 13.9136C11.0408 13.9136 13.0214 13.3915 13.0214 12.7472V10.6225H13.0194C13.0207 10.6111 13.0214 10.6002 13.0214 10.5888C13.0214 10.5718 13.0201 10.5548 13.0171 10.5381Z" fill="white"/>
</svg>
