<svg width="23" height="23" viewBox="0 0 23 23" fill="none" xmlns="http://www.w3.org/2000/svg">
<path d="M11.3577 2.54695L11.3458 3.0298L11.3539 3.03245L11.0845 3.46922C10.7577 3.99914 10.1737 4.35 9.5083 4.35C8.8429 4.35 8.25889 3.99914 7.9321 3.46922L7.66275 3.03245L7.67083 3.0298L7.65888 2.54697C7.6585 2.53137 7.6583 2.51571 7.6583 2.5C7.6583 1.47827 8.48657 0.65 9.5083 0.65C10.53 0.65 11.3583 1.47827 11.3583 2.5C11.3583 2.51572 11.3581 2.53137 11.3577 2.54695ZM11.8442 3.19407L11.7664 3.16799L11.8046 3.18056C13.1256 3.6146 14.2823 4.4137 15.1544 5.45889H15.1544C14.292 4.42523 13.1504 3.6316 11.8442 3.19407ZM3.80458 14.801C4.52222 15.6829 5.44079 16.3956 6.49136 16.869V16.8694C5.4342 16.3928 4.50929 15.6732 3.78836 14.7811L3.80458 14.801ZM3.83854 13.942L3.45054 14.3485L3.43127 14.3237L3.00903 14.4442C2.84806 14.4901 2.67747 14.5149 2.5 14.5149C1.47827 14.5149 0.65 13.6866 0.65 12.6649C0.65 11.9042 1.10924 11.2493 1.76824 10.9651L2.17159 10.7911L2.17082 10.7602L2.72898 10.8289C3.64239 10.9412 4.35 11.7209 4.35 12.6649C4.35 13.1604 4.15603 13.6093 3.83854 13.942ZM7.21198 3.18056L7.24995 3.16809L7.17239 3.19407C4.26189 4.16898 2.16241 6.91588 2.15831 10.1554C2.16242 6.9031 4.27934 4.14414 7.21198 3.18056ZM15.6545 9.2058L20.8568 8.44887V12.7415L15.6545 12.7827V9.2058ZM13.7627 9.4748L13.7642 12.8001L10.1621 12.8205L10.1589 9.96408L13.7627 9.4748ZM10.1621 17.4708L10.1619 14.6123L13.7605 14.6355L13.7632 17.9643L10.1621 17.4708ZM20.857 18.9496L15.6534 18.2174L15.6466 14.6746L20.8581 14.6831L20.857 18.9496Z" fill="#8394A5" stroke="#8394A5" stroke-width="1.3"/>
</svg>
