<svg width="18" height="18" viewBox="0 0 18 18" fill="none" xmlns="http://www.w3.org/2000/svg">
<path fill-rule="evenodd" clip-rule="evenodd" d="M1.18899 4.90239H3.3333V2.10231C3.3333 1.77343 3.46846 1.47394 3.68534 1.25683L3.68779 1.25439C3.90512 1.03728 4.20483 0.902344 4.53327 0.902344H13.4668C13.7957 0.902344 14.0952 1.0375 14.3123 1.25439L14.3147 1.25683C14.5316 1.47394 14.6668 1.77343 14.6668 2.10231V4.90239H16.8113C17.2513 4.90239 17.6111 5.26222 17.6111 5.70222V12.8524C17.6111 13.2924 17.2513 13.6522 16.8113 13.6522H14.8057V15.8967C14.8057 16.2252 14.6708 16.5249 14.4537 16.7422L14.4512 16.7446C14.2341 16.9615 13.9346 17.0967 13.6057 17.0967H4.32508C3.99664 17.0967 3.69692 16.9618 3.4796 16.7446L3.47715 16.7422C3.26004 16.5249 3.12511 16.2252 3.12511 15.8967V13.6522H1.18899C0.748995 13.6522 0.38916 13.2924 0.38916 12.8524V5.70222C0.38916 5.26222 0.748995 4.90239 1.18899 4.90239ZM12.2871 6.91622H14.4599C14.5739 6.91622 14.667 7.00929 14.667 7.1233V7.70758C14.667 7.82159 14.5739 7.91467 14.4599 7.91467H12.2871C12.1731 7.91467 12.08 7.82159 12.08 7.70758V7.1233C12.08 7.00929 12.1731 6.91622 12.2871 6.91622ZM13.4724 11.7495H4.45868V15.7631H13.4724V11.7495ZM4.6671 4.90239H13.3334V2.23569H4.6671V4.90239ZM6.04876 12.4718H11.8821V13.3053H6.04876V12.4718ZM6.04876 14.2078H11.8821V15.0412H6.04876V14.2078Z" fill="#8394A5"/>
</svg>
