<svg width="25" height="27" viewBox="0 0 25 27" fill="none" xmlns="http://www.w3.org/2000/svg">
<path d="M3.64916 11.2331C4.71652 8.89366 6.3265 7.42988 8.5977 6.58182C10.7503 5.9937 12.9257 6.04405 15.2651 7.11141L15.525 7.23001L16.711 4.63063L17.9603 7.39895L18.9497 10.0487L16.3 11.0381L13.3903 11.9089L14.8135 8.78964C14.5535 8.67104 14.5535 8.67104 14.5535 8.67104C12.734 7.84087 10.8185 7.90912 9.30442 8.47449C7.53034 8.92127 6.2989 10.2437 5.46873 12.0633C4.75716 13.6229 4.56547 15.4197 5.39078 17.0524C5.83755 18.8265 7.15999 20.058 8.97956 20.8881C10.5392 21.5997 12.336 21.7914 14.2287 21.0847C15.7428 20.5193 17.2342 19.3155 17.9458 17.7558C18.4201 16.7161 18.3746 15.4391 18.3292 14.1622L19.7247 13.8568L20.3632 13.834C20.6686 15.2296 20.217 16.9078 19.5054 18.4674C18.5566 20.5469 16.8281 22.2706 14.6754 22.8588C12.6642 23.8254 10.2289 23.6565 8.14939 22.7077C5.80995 21.6403 4.34617 20.0304 3.49811 17.7592C2.53146 15.7479 2.7004 13.3126 3.64916 11.2331L3.64916 11.2331Z" fill="#8394A5"/>
</svg>
