<svg width="20" height="20" viewBox="0 0 20 20" fill="none" xmlns="http://www.w3.org/2000/svg">
<path fill-rule="evenodd" clip-rule="evenodd" d="M1.86019 20L1.86019 6.97675C0.92996 6.51163 0.464844 5.5814 0.464844 4.65116C0.464844 3.72093 0.92996 3.25581 1.86019 2.7907L1.86019 0H3.25554L3.25554 2.7907C4.18577 3.25581 4.65089 3.72093 4.65089 4.65116C4.65089 5.5814 4.18577 6.51163 3.25554 6.97675L3.25554 20H1.86019ZM9.30205 20V17.2093C8.37182 17.2093 7.9067 16.2791 7.9067 15.3488C7.9067 14.4186 8.37182 13.9535 9.30205 13.4884L9.30205 0H10.6974L10.6974 13.4884C11.6276 13.9535 12.0928 14.4186 12.0928 15.3488C12.0928 16.2791 11.6276 17.2093 10.6974 17.2093V20H9.30205ZM16.7439 20V6.04651C15.8137 6.04651 15.3486 5.11628 15.3486 4.18605C15.3486 3.25582 15.8137 2.32558 16.7439 2.32558V0H18.1393V2.32558C19.0695 2.32558 19.5346 3.25582 19.5346 4.18605C19.5346 5.11628 19.0695 6.04651 18.1393 6.04651V20H16.7439Z" fill="#8394A5"/>
</svg>
