<svg width="21" height="21" viewBox="0 0 21 21" fill="none" xmlns="http://www.w3.org/2000/svg">
<path d="M11.5103 5.80657L17.1437 5.82162L17.0134 0L15.291 1.81739C14.6416 1.41369 13.9354 1.07858 13.1788 0.82515C7.94186 -0.928927 2.27456 1.89445 0.52048 7.13135C-1.2336 12.3682 1.58978 18.0355 6.82668 19.7896C12.0636 21.5437 17.7309 18.7203 19.485 13.4834C19.9463 12.1059 20.091 10.6987 19.9584 9.3407L17.9427 9.31462C18.0878 10.4684 17.9825 11.6719 17.5885 12.8482C16.1852 17.0377 11.6514 19.2964 7.46188 17.8932C3.27237 16.4899 1.01367 11.9561 2.41693 7.76656C3.82019 3.57704 8.35403 1.31834 12.5435 2.7216C13.0138 2.87909 13.4596 3.07602 13.8788 3.30747L11.5103 5.80657Z" fill="#8394A5"/>
</svg>
