<svg width="32" height="33" viewBox="0 0 32 33" fill="none" xmlns="http://www.w3.org/2000/svg">
<path fill-rule="evenodd" clip-rule="evenodd" d="M6 8.20213V24.3723C6.8 24.7979 17.2 26.5 17.6 26.5V6.5C17.2 6.5 6.8 8.20213 6 8.20213ZM18 9.47872V9.90426H20.8V12.0319H18V12.4574H20.8V14.5851H18V15.4362H20.8V17.5638H18V17.9894H20.8V20.117H18V20.9681H20.8V23.0957H18V24.3723H25.6C26 24.3723 26 24.3723 26 23.5213V9.05319C26 8.62766 26 8.62766 25.6 8.62766H18V9.47872ZM12.8 12.883L12 15.0106L11.2 12.883H10C10 13.3085 11.2 15.8617 11.2 16.2872C11.2 16.7128 9.6 19.266 9.6 19.6915H10.8L12 17.5638C12.4 17.9894 12.8 19.266 12.8 20.117H14.4C14 19.266 14 18.8404 13.6 18.4149C13.6 17.9894 12.8 16.7128 12.8 16.2872C12.8 16.2872 14 13.3085 14.4 12.4574L12.8 12.883ZM21.6 20.117H24.8V17.9894H21.6V20.117ZM21.6 12.0319H24.8V11.6064V9.90426H21.6V12.0319ZM21.6 23.0957H24.8V22.6702V20.9681H21.6V23.0957ZM21.6 14.5851H24.8V12.4574H21.6V14.5851ZM21.6 17.5638H24.8V15.4362H21.6V17.5638Z" fill="#1E7145"/>
</svg>
