<svg width="32" height="33" viewBox="0 0 32 33" fill="none" xmlns="http://www.w3.org/2000/svg">
<path fill-rule="evenodd" clip-rule="evenodd" d="M8.36328 10.5141H17.8281C18.1661 9.83803 18.8422 9.5 19.5182 9.5C20.1943 9.5 20.5323 9.83803 20.8703 10.5141H22.8985V11.5282H20.8703C20.5323 12.2042 20.1943 12.5423 19.5182 12.5423C18.8422 12.5423 18.1661 12.2042 17.8281 11.5282H8.36328V10.5141ZM8.36328 15.9225H10.3915C10.3915 15.2465 11.0675 14.9085 11.7436 14.9085C12.4196 14.9085 12.7576 15.2465 13.0957 15.9225H22.8985V16.9366H13.0957C12.7576 17.6127 12.4196 17.9507 11.7436 17.9507C11.0675 17.9507 10.3915 17.6127 10.3915 16.9366H8.36328V15.9225ZM8.36328 21.331H18.5041C18.5041 20.6549 19.1802 20.3169 19.8562 20.3169C20.5323 20.3169 21.2084 20.6549 21.2084 21.331H22.8985V22.3451H21.2084C21.2084 23.0211 20.5323 23.3592 19.8562 23.3592C19.1802 23.3592 18.5041 23.0211 18.5041 22.3451H8.36328V21.331Z" fill="#8394A5"/>
</svg>
