<svg width="13" height="13" viewBox="0 0 13 13" fill="none" xmlns="http://www.w3.org/2000/svg">
<path d="M0.173125 11.9889L3.50459 8.65744C2.77611 7.74536 2.33932 6.58884 2.33932 5.3303C2.33932 2.38679 4.72613 0 7.66966 0C10.6132 0 13 2.38679 13 5.3303C13 8.2738 10.6132 10.6606 7.66966 10.6606C6.41111 10.6606 5.25457 10.2238 4.34249 9.49533L1.01103 12.8268C0.895682 12.9423 0.742731 13 0.592149 13C0.440974 13 0.288616 12.9423 0.173125 12.8268C-0.0577078 12.5958 -0.0577078 12.2196 0.173125 11.9889ZM7.66966 9.47608C9.95934 9.47608 11.8155 7.61995 11.8155 5.3303C11.8155 3.04064 9.95934 1.18451 7.66966 1.18451C5.37998 1.18451 3.52384 3.04064 3.52384 5.3303C3.52384 7.61995 5.37998 9.47608 7.66966 9.47608Z" fill="#BDD0DA"/>
</svg>
