<svg width="16" height="16" viewBox="0 0 16 16" fill="none" xmlns="http://www.w3.org/2000/svg">
<path d="M2.83345 3.73984C4.18012 5.46651 6.66679 8.66651 6.66679 8.66651V12.6665C6.66679 13.0332 6.96679 13.3332 7.33345 13.3332H8.66679C9.03345 13.3332 9.33345 13.0332 9.33345 12.6665V8.66651C9.33345 8.66651 11.8135 5.46651 13.1601 3.73984C13.2365 3.64142 13.2838 3.52352 13.2964 3.39957C13.3091 3.27563 13.2868 3.15061 13.2319 3.03875C13.177 2.9269 13.0918 2.8327 12.986 2.76689C12.8802 2.70108 12.758 2.6663 12.6335 2.6665H3.36012C2.80679 2.6665 2.49345 3.29984 2.83345 3.73984Z" fill="#8394A5"/>
</svg>
