<svg width="16" height="16" viewBox="0 0 16 16" fill="none" xmlns="http://www.w3.org/2000/svg">
<path d="M8.49525 7.72682C8.93034 7.72682 9.28304 7.37411 9.28304 6.93903C9.28304 6.50394 8.93034 6.15124 8.49525 6.15124C8.06017 6.15124 7.70746 6.50394 7.70746 6.93903C7.70746 7.37411 8.06017 7.72682 8.49525 7.72682Z" fill="#8394A5"/>
<path d="M8.89262 9.31849C8.82812 9.08154 8.95599 8.83471 9.18675 8.75072C9.4161 8.66724 9.67127 8.7723 9.77537 8.99305L11.0265 11.6464C11.2096 12.0345 11.0196 12.496 10.6163 12.6428C10.2153 12.7887 9.77524 12.5607 9.66316 12.149L8.89262 9.31849Z" fill="#8394A5"/>
<path fill-rule="evenodd" clip-rule="evenodd" d="M3.89289 2.08789C3.6639 2.08789 3.47826 2.27353 3.47826 2.50252V14.195C3.47826 14.424 3.6639 14.6096 3.89289 14.6096H12.9318C13.1608 14.6096 13.3464 14.424 13.3464 14.195V2.50252C13.3464 2.27353 13.1608 2.08789 12.9318 2.08789H3.89289ZM8.45379 10.6292C8.56616 10.6292 8.67736 10.6242 8.7872 10.6145L9.22072 12.4308C9.3703 13.0575 10.0326 13.4139 10.638 13.1936L10.9656 13.0743C11.5757 12.8523 11.8525 12.1454 11.5555 11.5681L10.6898 9.88542C11.5978 9.20476 12.1854 8.11978 12.1854 6.89757C12.1854 4.83664 10.5147 3.16592 8.45379 3.16592C6.39286 3.16592 4.72215 4.83664 4.72215 6.89757C4.72215 8.9585 6.39286 10.6292 8.45379 10.6292ZM5.09531 13.4487C5.3472 13.4487 5.5514 13.2445 5.5514 12.9926C5.5514 12.7407 5.3472 12.5365 5.09531 12.5365C4.84342 12.5365 4.63922 12.7407 4.63922 12.9926C4.63922 13.2445 4.84342 13.4487 5.09531 13.4487Z" fill="#8394A5"/>
</svg>
