<svg width="32" height="33" viewBox="0 0 32 33" fill="none" xmlns="http://www.w3.org/2000/svg">
<path d="M18.277 13.8355L14.246 14.3405L14.101 15.0105L14.895 15.1555C15.411 15.2785 15.514 15.4645 15.4 15.9795L14.101 22.0825C13.761 23.6605 14.287 24.4025 15.524 24.4025C16.483 24.4025 17.596 23.9595 18.101 23.3505L18.256 22.6185C17.906 22.9285 17.39 23.0525 17.05 23.0525C16.565 23.0525 16.39 22.7125 16.514 22.1135L18.277 13.8355ZM18.399 10.1625C18.399 10.3936 18.3535 10.6225 18.265 10.836C18.1766 11.0496 18.0469 11.2436 17.8835 11.407C17.7201 11.5704 17.5261 11.7001 17.3125 11.7885C17.099 11.877 16.8701 11.9225 16.639 11.9225C16.4079 11.9225 16.179 11.877 15.9655 11.7885C15.7519 11.7001 15.5579 11.5704 15.3945 11.407C15.2311 11.2436 15.1014 11.0496 15.013 10.836C14.9245 10.6225 14.879 10.3936 14.879 10.1625C14.879 9.69572 15.0644 9.24806 15.3945 8.918C15.7246 8.58793 16.1722 8.4025 16.639 8.4025C17.1058 8.4025 17.5534 8.58793 17.8835 8.918C18.2136 9.24806 18.399 9.69572 18.399 10.1625Z" fill="white"/>
<path fill-rule="evenodd" clip-rule="evenodd" d="M16 30.7025C23.8977 30.7025 30.3 24.3002 30.3 16.4025C30.3 8.50482 23.8977 2.1025 16 2.1025C8.10233 2.1025 1.7 8.50482 1.7 16.4025C1.7 24.3002 8.10233 30.7025 16 30.7025ZM16 32.4025C24.8366 32.4025 32 25.2391 32 16.4025C32 7.56594 24.8366 0.402496 16 0.402496C7.16344 0.402496 0 7.56594 0 16.4025C0 25.2391 7.16344 32.4025 16 32.4025Z" fill="white"/>
</svg>
