<svg width="16" height="16" viewBox="0 0 16 16" fill="none" xmlns="http://www.w3.org/2000/svg">
<path fill-rule="evenodd" clip-rule="evenodd" d="M12.7988 3.96096C12.9508 4.11299 12.9517 4.35919 12.8008 4.51232L12.2337 5.08774C12.0996 5.07475 11.9637 5.0681 11.8262 5.0681C10.6552 5.0681 9.59679 5.55035 8.83879 6.32708C8.58701 6.19732 8.302 6.12416 8.00013 6.12416C6.97755 6.12416 6.14858 6.96362 6.14858 7.99915C6.14858 8.91428 6.79599 9.67629 7.6523 9.84111V9.93767C7.6523 11.1203 8.14415 12.1881 8.93446 12.9475V13.8687C8.93446 14.0848 8.75927 14.26 8.54315 14.26H7.4571C7.24099 14.26 7.0658 14.0848 7.0658 13.8687V12.5485C6.47202 12.4438 5.93064 12.1993 5.44164 11.8849L4.4977 12.8154C4.34384 12.967 4.09619 12.9653 3.94446 12.8115L3.19588 12.0528C3.04636 11.9013 3.04542 11.658 3.19375 11.5053L4.11437 10.5576C3.80002 10.0686 3.55552 9.52726 3.45074 8.93348H2.13056C1.91445 8.93348 1.73926 8.75829 1.73926 8.54217V7.47359C1.73926 7.25748 1.91445 7.08229 2.13056 7.08229H3.45074C3.55552 6.48851 3.80002 5.92966 4.11437 5.44067L3.19766 4.51047C3.04747 4.35807 3.04754 4.11329 3.19782 3.96097L3.94446 3.20425C4.09619 3.05047 4.34384 3.04874 4.4977 3.2004L5.44164 4.13086C5.93064 3.81651 6.47202 3.57201 7.0658 3.46722V2.12959C7.0658 1.91347 7.24099 1.73828 7.4571 1.73828H8.54315C8.75927 1.73828 8.93446 1.91347 8.93446 2.12959V3.46722C9.52824 3.57201 10.0696 3.81651 10.5586 4.13086L11.4869 3.20253C11.6398 3.04972 11.8875 3.04972 12.0403 3.20253L12.7988 3.96096Z" fill="#8394A5"/>
<path d="M13.2174 9.24355C13.2174 8.93662 12.9834 8.68702 12.6956 8.68702H12.4348V7.85224C12.4348 7.08508 11.8496 6.46094 11.1304 6.46094C10.4112 6.46094 9.82607 7.08508 9.82607 7.85224V8.68702H9.5652C9.27746 8.68702 9.04346 8.93662 9.04346 9.24355V11.4696C9.04346 11.7766 9.27746 12.0262 9.5652 12.0262H12.6956C12.9834 12.0262 13.2174 11.7766 13.2174 11.4696V9.24355ZM10.3478 7.85224C10.3478 7.392 10.6989 7.01746 11.1304 7.01746C11.5619 7.01746 11.913 7.392 11.913 7.85224V8.68702H10.3478V7.85224Z" fill="#8394A5"/>
</svg>
