<svg width="14" height="14" viewBox="0 0 14 14" fill="none" xmlns="http://www.w3.org/2000/svg">
<path fill-rule="evenodd" clip-rule="evenodd" d="M11.8008 3.51232C11.9517 3.35919 11.9508 3.11299 11.7988 2.96096L11.0403 2.20253C10.8875 2.04972 10.6398 2.04972 10.4869 2.20253L9.55862 3.13086C9.06962 2.81651 8.52824 2.57201 7.93446 2.46722V1.12959C7.93446 0.913474 7.75927 0.738281 7.54315 0.738281H6.4571C6.24099 0.738281 6.0658 0.913474 6.0658 1.12959V2.46722C5.47202 2.57201 4.93064 2.81651 4.44164 3.13086L3.4977 2.2004C3.34384 2.04874 3.09619 2.05047 2.94446 2.20425L2.19782 2.96097C2.04754 3.11329 2.04747 3.35807 2.19766 3.51047L3.11437 4.44067C2.80002 4.92966 2.55552 5.48851 2.45074 6.08229H1.13056C0.914448 6.08229 0.739258 6.25748 0.739258 6.47359V7.54217C0.739258 7.75829 0.914448 7.93348 1.13056 7.93348H2.45074C2.55552 8.52726 2.80002 9.06864 3.11437 9.55764L2.19375 10.5053C2.04542 10.658 2.04636 10.9013 2.19588 11.0528L2.94446 11.8115C3.09619 11.9653 3.34384 11.967 3.4977 11.8154L4.44164 10.8849C4.93064 11.1993 5.47202 11.4438 6.0658 11.5485V12.8687C6.0658 13.0848 6.24099 13.26 6.4571 13.26H7.54315C7.75927 13.26 7.93446 13.0848 7.93446 12.8687V11.5485C8.52824 11.4438 9.06962 11.1993 9.55862 10.8849L10.4869 11.8132C10.6398 11.9661 10.8875 11.9661 11.0403 11.8132L11.8007 11.0528C11.952 10.9016 11.9538 10.6569 11.8047 10.5035L10.8859 9.55764C11.2002 9.06864 11.4273 8.52726 11.5321 7.93348H12.8697C13.0858 7.93348 13.261 7.75829 13.261 7.54217V6.47359C13.261 6.25748 13.0858 6.08229 12.8697 6.08229H11.5321C11.4273 5.48851 11.2002 4.92966 10.8859 4.44067L11.8008 3.51232ZM7.00013 8.87414C8.02271 8.87414 8.85168 8.03468 8.85168 6.99915C8.85168 5.96362 8.02271 5.12416 7.00013 5.12416C5.97755 5.12416 5.14858 5.96362 5.14858 6.99915C5.14858 8.03468 5.97755 8.87414 7.00013 8.87414Z" fill="#8394A5"/>
</svg>
