<svg width="16" height="16" viewBox="0 0 16 16" fill="none" xmlns="http://www.w3.org/2000/svg">
<path fill-rule="evenodd" clip-rule="evenodd" d="M7.18555 2.08789C6.08098 2.08789 5.18555 2.98332 5.18555 4.08789V8.30923C5.18555 9.4138 6.08097 10.3092 7.18554 10.3092H13.3041C14.4087 10.3092 15.3041 9.4138 15.3041 8.30923V4.08789C15.3041 2.98332 14.4087 2.08789 13.3041 2.08789H7.18555ZM14.6717 3.98519H5.81792V9.67689H14.6717V3.98519Z" fill="#8394A5"/>
<path fill-rule="evenodd" clip-rule="evenodd" d="M1.70279 5.25H10.5656C10.737 5.25 10.8773 5.39774 10.8773 5.57832V7.68193C10.8773 7.86251 10.737 8.01025 10.5656 8.01025H1.70279C1.53137 8.01025 1.39111 7.86251 1.39111 7.68193V5.57832C1.39111 5.39774 1.53137 5.25 1.70279 5.25ZM8.78903 6.30298H10.0335V6.95728H8.78903V6.30298ZM7.15272 6.30298H8.39943V6.95728H7.15272V6.30298ZM1.70279 8.61296H10.5656C10.737 8.61296 10.8773 8.7607 10.8773 8.94128V11.0449C10.8773 11.2255 10.737 11.3732 10.5656 11.3732H1.70279C1.53137 11.3732 1.39111 11.2255 1.39111 11.0449V8.94128C1.39111 8.7607 1.53137 8.61296 1.70279 8.61296ZM1.70279 11.9759H10.5656C10.737 11.9759 10.8773 12.1237 10.8773 12.3042V14.4078C10.8773 14.5884 10.737 14.7362 10.5656 14.7362H1.70279C1.53137 14.7362 1.39111 14.5884 1.39111 14.4078V12.3042C1.39111 12.1237 1.53137 11.9759 1.70279 11.9759ZM8.78903 9.66593H10.0335V10.3226H8.78903V9.66593ZM8.78903 13.0289H10.0335V13.6855H8.78903V13.0289Z" fill="#8394A5"/>
</svg>
