<svg width="23" height="23" viewBox="0 0 23 23" fill="none" xmlns="http://www.w3.org/2000/svg">
<path fill-rule="evenodd" clip-rule="evenodd" d="M2.85714 12.5714C2.38376 12.5714 2 12.9552 2 13.4286V17.7143C2 18.1877 2.38376 18.5714 2.85714 18.5714H19.1429C19.6162 18.5714 20 18.1877 20 17.7143V13.4286C20 12.9552 19.6162 12.5714 19.1429 12.5714H2.85714ZM7.14286 15.1429H3.71429V16H7.14286V15.1429Z" fill="#8394A5"/>
<path d="M17.3755 11.7143C17.4105 11.4335 17.4286 11.1474 17.4286 10.8571C17.4286 7.07005 14.3585 4 10.5714 4C6.78433 4 3.71429 7.07005 3.71429 10.8571C3.71429 11.1474 3.73233 11.4335 3.76734 11.7143H8.14632C8.05156 11.4462 8 11.1577 8 10.8571C8 9.43698 9.15127 8.28571 10.5714 8.28571C11.9916 8.28571 13.1429 9.43698 13.1429 10.8571C13.1429 11.1577 13.0913 11.4462 12.9965 11.7143H17.3755Z" fill="#8394A5"/>
<path d="M12.0564 11.7143C12.2022 11.4621 12.2857 11.1694 12.2857 10.8571C12.2857 9.91037 11.5182 9.14286 10.5714 9.14286C9.62466 9.14286 8.85714 9.91037 8.85714 10.8571C8.85714 11.1694 8.94062 11.4621 9.08648 11.7143H12.0564Z" fill="#8394A5"/>
</svg>
