<svg width="23" height="23" viewBox="0 0 23 23" fill="none" xmlns="http://www.w3.org/2000/svg">
<path fill-rule="evenodd" clip-rule="evenodd" d="M4.925 3C4.38652 3 3.95 3.44172 3.95 3.98661V11.5H2.75C2.33579 11.5 2 11.8398 2 12.2589V17.875C2 18.2941 2.33579 18.6339 2.75 18.6339H4.4V20H6.2V18.6339H16.1V20H17.9V18.6339H19.25C19.6642 18.6339 20 18.2941 20 17.875V12.2589C20 11.8398 19.6642 11.5 19.25 11.5H5.9V3.98661C5.9 3.44172 5.46348 3 4.925 3ZM14.45 15.1429C14.45 15.562 14.1142 15.9018 13.7 15.9018C13.2858 15.9018 12.95 15.562 12.95 15.1429C12.95 14.7237 13.2858 14.3839 13.7 14.3839C14.1142 14.3839 14.45 14.7237 14.45 15.1429ZM16.85 15.9018C17.2642 15.9018 17.6 15.562 17.6 15.1429C17.6 14.7237 17.2642 14.3839 16.85 14.3839C16.4358 14.3839 16.1 14.7237 16.1 15.1429C16.1 15.562 16.4358 15.9018 16.85 15.9018Z" fill="#8394A5"/>
</svg>
