<svg width="23" height="23" viewBox="0 0 23 23" fill="none" xmlns="http://www.w3.org/2000/svg">
<path fill-rule="evenodd" clip-rule="evenodd" d="M3.55855 3H19.4414C19.7486 3 20 3.26477 20 3.58838V7.35822C20 7.68183 19.7486 7.9466 19.4414 7.9466H3.55855C3.25135 7.9466 3 7.68183 3 7.35822V3.58838C3 3.26477 3.25135 3 3.55855 3ZM16.2577 4.88702H18.4879V6.05958H16.2577V4.88702ZM13.3253 4.88702H15.5595V6.05958H13.3253V4.88702ZM3.55855 9.0267H19.4414C19.7486 9.0267 20 9.29147 20 9.61508V13.3849C20 13.7085 19.7486 13.9733 19.4414 13.9733H3.55855C3.25135 13.9733 3 13.7085 3 13.3849V9.61508C3 9.29147 3.25135 9.0267 3.55855 9.0267ZM3.55855 15.0534H19.4414C19.7486 15.0534 20 15.3182 20 15.6418V19.4116C20 19.7352 19.7486 20 19.4414 20H3.55855C3.25135 20 3 19.7352 3 19.4116V15.6418C3 15.3182 3.25135 15.0534 3.55855 15.0534ZM16.2577 10.9137H18.4879V12.0905H16.2577V10.9137ZM16.2577 16.9404H18.4879V18.1172H16.2577V16.9404Z" fill="#8394A5"/>
</svg>
