<svg width="23" height="23" viewBox="0 0 23 23" fill="none" xmlns="http://www.w3.org/2000/svg">
<path d="M6.34417 10.3404C7.72417 13.0525 9.9475 15.2662 12.6596 16.6558L14.7679 14.5475C15.0267 14.2887 15.41 14.2025 15.7454 14.3175C16.8188 14.6721 17.9783 14.8637 19.1667 14.8637C19.6938 14.8637 20.125 15.295 20.125 15.8221V19.1667C20.125 19.6938 19.6938 20.125 19.1667 20.125C10.1679 20.125 2.875 12.8321 2.875 3.83333C2.875 3.30625 3.30625 2.875 3.83333 2.875H7.1875C7.71458 2.875 8.14583 3.30625 8.14583 3.83333C8.14583 5.03125 8.3375 6.18125 8.69208 7.25458C8.7975 7.59 8.72083 7.96375 8.4525 8.23208L6.34417 10.3404Z" fill="#8394A5"/>
</svg>
