<svg width="23" height="23" viewBox="0 0 23 23" fill="none" xmlns="http://www.w3.org/2000/svg">
<path d="M3 4.88889H4.88889V3C3.85 3 3 3.85 3 4.88889ZM3 12.4444H4.88889V10.5556H3V12.4444ZM6.77778 20H8.66667V18.1111H6.77778V20ZM3 8.66667H4.88889V6.77778H3V8.66667ZM12.4444 3H10.5556V4.88889H12.4444V3ZM18.1111 3V4.88889H20C20 3.85 19.15 3 18.1111 3ZM4.88889 20V18.1111H3C3 19.15 3.85 20 4.88889 20ZM3 16.2222H4.88889V14.3333H3V16.2222ZM8.66667 3H6.77778V4.88889H8.66667V3ZM10.5556 20H12.4444V18.1111H10.5556V20ZM18.1111 12.4444H20V10.5556H18.1111V12.4444ZM18.1111 20C19.15 20 20 19.15 20 18.1111H18.1111V20ZM18.1111 8.66667H20V6.77778H18.1111V8.66667ZM18.1111 16.2222H20V14.3333H18.1111V16.2222ZM14.3333 20H16.2222V18.1111H14.3333V20ZM14.3333 4.88889H16.2222V3H14.3333V4.88889ZM6.77778 16.2222H16.2222V6.77778H6.77778V16.2222ZM8.66667 8.66667H14.3333V14.3333H8.66667V8.66667Z" fill="#8394A5"/>
</svg>
