<svg width="23" height="23" viewBox="0 0 23 23" fill="none" xmlns="http://www.w3.org/2000/svg">
<path d="M12.2119 11.106C12.8374 11.106 13.3444 10.5989 13.3444 9.97351C13.3444 9.34807 12.8374 8.84106 12.2119 8.84106C11.5865 8.84106 11.0795 9.34807 11.0795 9.97351C11.0795 10.5989 11.5865 11.106 12.2119 11.106Z" fill="#8394A5"/>
<path d="M12.7831 13.394C12.6904 13.0534 12.8742 12.6986 13.2059 12.5778C13.5356 12.4578 13.9024 12.6088 14.0521 12.9262L15.8506 16.7403C16.1138 17.2982 15.8406 17.9617 15.261 18.1726C14.6845 18.3824 14.0519 18.0547 13.8908 17.4628L12.7831 13.394Z" fill="#8394A5"/>
<path fill-rule="evenodd" clip-rule="evenodd" d="M5.59603 3C5.26685 3 5 3.26685 5 3.59603V20.404C5 20.7332 5.26685 21 5.59603 21H18.5894C18.9186 21 19.1854 20.7332 19.1854 20.404V3.59603C19.1854 3.26685 18.9186 3 18.5894 3H5.59603ZM12.1523 15.2781C12.3138 15.2781 12.4737 15.271 12.6316 15.257L13.2548 17.868C13.4698 18.7689 14.4218 19.2812 15.2921 18.9644L15.7631 18.793C16.64 18.4738 17.038 17.4576 16.6111 16.6278L15.3665 14.209C16.6719 13.2305 17.5166 11.6708 17.5166 9.91391C17.5166 6.95132 15.1149 4.54967 12.1523 4.54967C9.18973 4.54967 6.78808 6.95132 6.78808 9.91391C6.78808 12.8765 9.18973 15.2781 12.1523 15.2781ZM7.3245 19.3311C7.6866 19.3311 7.98013 19.0376 7.98013 18.6755C7.98013 18.3134 7.6866 18.0199 7.3245 18.0199C6.96241 18.0199 6.66887 18.3134 6.66887 18.6755C6.66887 19.0376 6.96241 19.3311 7.3245 19.3311Z" fill="#8394A5"/>
</svg>
