<svg width="23" height="23" viewBox="0 0 23 23" fill="none" xmlns="http://www.w3.org/2000/svg">
<path fill-rule="evenodd" clip-rule="evenodd" d="M15.5 7.57271V7.90908C15.5 8.85304 14.9873 9.68392 14.2111 10.1708C14.8483 10.4333 15.4368 10.7898 15.9581 11.2249C16.8551 10.3835 17.4167 9.2105 17.4167 7.91004V7.57367C18.5293 7.17596 19.3333 6.12275 19.3333 4.875C19.3333 3.28992 18.0434 2 16.4583 2C14.8733 2 13.5833 3.28992 13.5833 4.875C13.5833 6.12275 14.3874 7.17596 15.5 7.57271ZM16.4583 3.91667C16.9873 3.91667 17.4167 4.34696 17.4167 4.875C17.4167 5.40304 16.9873 5.83333 16.4583 5.83333C15.9293 5.83333 15.5 5.40304 15.5 4.875C15.5 4.34696 15.9293 3.91667 16.4583 3.91667Z" fill="#8394A5"/>
<path fill-rule="evenodd" clip-rule="evenodd" d="M7.83333 15.593V14.9375C7.83333 14.1248 8.324 13.409 9.06671 12.9758C8.4275 12.7055 7.841 12.3366 7.32062 11.8919C6.45429 12.672 5.91667 13.7492 5.91667 14.9375V15.593C4.80404 15.9907 4 17.0439 4 18.2917C4 19.8767 5.28992 21.1667 6.875 21.1667C8.46008 21.1667 9.75 19.8767 9.75 18.2917C9.75 17.0439 8.94596 15.9907 7.83333 15.593ZM6.875 19.25C6.346 19.25 5.91667 18.8197 5.91667 18.2917C5.91667 17.7636 6.346 17.3333 6.875 17.3333C7.404 17.3333 7.83333 17.7636 7.83333 18.2917C7.83333 18.8197 7.404 19.25 6.875 19.25Z" fill="#8394A5"/>
<path fill-rule="evenodd" clip-rule="evenodd" d="M11.6667 10.625C14.5647 10.625 16.9615 12.7822 17.3544 15.5738C18.4996 15.9533 19.3333 17.0209 19.3333 18.2917C19.3333 19.8768 18.0434 21.1667 16.4583 21.1667C14.8732 21.1667 13.5833 19.8768 13.5833 18.2917C13.5833 17.0727 14.35 16.0348 15.4233 15.617C15.0707 13.8651 13.522 12.5417 11.6667 12.5417C8.76867 12.5417 6.37187 10.3845 5.97896 7.59283C4.83375 7.21333 4 6.14575 4 4.875C4 3.28992 5.28992 2 6.875 2C8.46008 2 9.75 3.28992 9.75 4.875C9.75 6.094 8.98333 7.13188 7.91 7.54971C8.26267 9.30154 9.81133 10.625 11.6667 10.625ZM7.83333 4.875C7.83333 4.34696 7.404 3.91667 6.875 3.91667C6.346 3.91667 5.91667 4.34696 5.91667 4.875C5.91667 5.40304 6.346 5.83333 6.875 5.83333C7.404 5.83333 7.83333 5.40304 7.83333 4.875ZM15.5 18.2917C15.5 18.8197 15.9293 19.25 16.4583 19.25C16.9873 19.25 17.4167 18.8197 17.4167 18.2917C17.4167 17.7636 16.9873 17.3333 16.4583 17.3333C15.9293 17.3333 15.5 17.7636 15.5 18.2917Z" fill="#8394A5"/>
</svg>
