<svg width="23" height="23" viewBox="0 0 23 23" fill="none" xmlns="http://www.w3.org/2000/svg">
<path d="M12.506 9.38186L9.58311 7.18727V15.8123L12.506 13.6177L15.3331 11.4998L12.506 9.38186ZM12.506 9.38186L9.58311 7.18727V15.8123L12.506 13.6177L15.3331 11.4998L12.506 9.38186ZM12.506 9.38186L9.58311 7.18727V15.8123L12.506 13.6177L15.3331 11.4998L12.506 9.38186ZM10.5414 3.90019V1.96436C8.61519 2.15602 6.86144 2.92269 5.44311 4.08227L6.80394 5.45269C7.86769 4.62852 9.14227 4.07269 10.5414 3.90019ZM5.45269 6.80394L4.08227 5.44311C2.92269 6.86144 2.15602 8.61519 1.96436 10.5414H3.90019C4.07269 9.14227 4.62852 7.86769 5.45269 6.80394ZM3.90019 12.4581H1.96436C2.15602 14.3844 2.92269 16.1381 4.08227 17.5564L5.45269 16.186C4.62852 15.1319 4.07269 13.8573 3.90019 12.4581ZM5.44311 18.9173C6.86144 20.0769 8.62477 20.8435 10.5414 21.0352V19.0994C9.14227 18.9269 7.86769 18.371 6.80394 17.5469L5.44311 18.9173ZM21.0831 11.4998C21.0831 16.4448 17.3264 20.5273 12.506 21.0352V19.0994C16.2627 18.601 19.1664 15.381 19.1664 11.4998C19.1664 7.61852 16.2627 4.39852 12.506 3.90019V1.96436C17.3264 2.47227 21.0831 6.55477 21.0831 11.4998Z" fill="#8394A5"/>
</svg>
