<svg width="21" height="21" viewBox="0 0 21 21" fill="none" xmlns="http://www.w3.org/2000/svg">
<path d="M6.00022 6.55556C6.00022 6.86238 6.24895 7.11111 6.55577 7.11111C6.8626 7.11111 7.11133 6.86238 7.11133 6.55556C7.11133 6.24873 6.8626 6 6.55577 6C6.24895 6 6.00022 6.24873 6.00022 6.55556Z" stroke="#8394A5" stroke-width="2"/>
<path d="M10.4446 6.55556C10.4446 6.86238 10.6933 7.11111 11.0001 7.11111C11.3069 7.11111 11.5557 6.86238 11.5557 6.55556C11.5557 6.24873 11.3069 6 11.0001 6C10.6933 6 10.4446 6.24873 10.4446 6.55556Z" stroke="#8394A5" stroke-width="2"/>
<path d="M14.8889 6.55556C14.8889 6.86238 15.1376 7.11111 15.4444 7.11111C15.7513 7.11111 16 6.86238 16 6.55556C16 6.24873 15.7513 6 15.4444 6C15.1376 6 14.8889 6.24873 14.8889 6.55556Z" stroke="#8394A5" stroke-width="2"/>
<path d="M6.00022 11.0009C6.00022 11.3077 6.24895 11.5564 6.55577 11.5564C6.8626 11.5564 7.11133 11.3077 7.11133 11.0009C7.11133 10.694 6.8626 10.4453 6.55577 10.4453C6.24895 10.4453 6.00022 10.694 6.00022 11.0009Z" stroke="#8394A5" stroke-width="2"/>
<path d="M10.4446 11.0009C10.4446 11.3077 10.6933 11.5564 11.0001 11.5564C11.3069 11.5564 11.5557 11.3077 11.5557 11.0009C11.5557 10.694 11.3069 10.4453 11.0001 10.4453C10.6933 10.4453 10.4446 10.694 10.4446 11.0009Z" stroke="#8394A5" stroke-width="2"/>
<path d="M14.8889 11.0009C14.8889 11.3077 15.1376 11.5564 15.4444 11.5564C15.7513 11.5564 16 11.3077 16 11.0009C16 10.694 15.7513 10.4453 15.4444 10.4453C15.1376 10.4453 14.8889 10.694 14.8889 11.0009Z" stroke="#8394A5" stroke-width="2"/>
<path d="M6.00022 15.4442C6.00022 15.7511 6.24895 15.9998 6.55577 15.9998C6.8626 15.9998 7.11133 15.7511 7.11133 15.4442C7.11133 15.1374 6.8626 14.8887 6.55577 14.8887C6.24895 14.8887 6.00022 15.1374 6.00022 15.4442Z" stroke="#8394A5" stroke-width="2"/>
<path d="M10.4446 15.4442C10.4446 15.7511 10.6933 15.9998 11.0001 15.9998C11.3069 15.9998 11.5557 15.7511 11.5557 15.4442C11.5557 15.1374 11.3069 14.8887 11.0001 14.8887C10.6933 14.8887 10.4446 15.1374 10.4446 15.4442Z" stroke="#8394A5" stroke-width="2"/>
<path d="M14.8889 15.4442C14.8889 15.7511 15.1376 15.9998 15.4444 15.9998C15.7513 15.9998 16 15.7511 16 15.4442C16 15.1374 15.7513 14.8887 15.4444 14.8887C15.1376 14.8887 14.8889 15.1374 14.8889 15.4442Z" stroke="#8394A5" stroke-width="2"/>
</svg>
