<svg width="36" height="37" viewBox="0 0 36 37" fill="none" xmlns="http://www.w3.org/2000/svg">
<g clip-path="url(#clip0)">
<path d="M13.8436 7.03577C15.6985 6.97834 17.934 6.80005 19.23 8.41923C21.378 10.905 19.7657 14.4716 20.5303 17.3723C20.8167 17.9462 21.2846 18.4094 21.8614 18.6898C22.4383 18.9702 23.0916 19.0522 23.7198 18.9229C24.0002 18.2505 24.5359 17.7167 25.2094 17.4387C25.8828 17.1607 26.639 17.1612 27.3122 17.44C27.7476 17.6428 28.1193 17.9608 28.3871 18.3595C28.6549 18.7582 28.8087 19.2226 28.8318 19.7024C28.855 20.1821 28.7465 20.6591 28.5183 21.0818C28.29 21.5044 27.9506 21.8566 27.5367 22.1004C27.1971 22.2775 26.8245 22.3825 26.4423 22.4087C26.0602 22.4348 25.6767 22.3816 25.3161 22.2524C24.9556 22.1232 24.6256 21.9208 24.347 21.6578C24.0685 21.3949 23.8473 21.0772 23.6975 20.7246C22.0241 20.6472 20.3474 20.6879 18.6797 20.8464C17.1479 21.2869 16.7596 23.0244 16.9199 24.4199C16.9962 26.2825 17.1136 28.4991 15.5442 29.8328C13.8299 31.4409 11.309 30.8863 9.18405 30.9806C9.03576 30.3763 8.88747 29.7754 8.73575 29.1745C10.7844 28.9731 13.7004 29.946 14.8867 27.6805C15.5828 25.415 14.4873 22.811 15.8793 20.6972C14.2104 20.7315 12.5364 20.7084 10.8692 20.7204C10.7289 20.1162 10.5797 19.5141 10.4218 18.9143C13.3679 18.9143 16.3139 18.8989 19.26 18.9255C18.3094 17.614 18.9103 15.706 17.6862 14.5728C16.9376 14.0044 15.9959 13.752 15.0633 13.8699C12.5235 13.8811 9.98464 13.8699 7.44487 13.8811C7.30588 13.2757 7.15757 12.6724 7 12.0716C9.95378 12.087 12.9144 12.0373 15.8656 12.0904C16.8157 12.1461 17.7426 12.4054 18.5837 12.8508C18.504 11.7219 18.732 10.3307 17.7514 9.50782C16.8428 8.57609 15.4516 8.86495 14.2884 8.84266C14.1538 8.23709 14.0055 7.63464 13.8436 7.03577Z" fill="#61D6F2"/>
</g>
<defs>
<clipPath id="clip0">
<rect width="24" height="24" fill="white" transform="translate(6 7)"/>
</clipPath>
</defs>
</svg>
