<svg width="16" height="16" viewBox="0 0 16 16" fill="none" xmlns="http://www.w3.org/2000/svg">
<path fill-rule="evenodd" clip-rule="evenodd" d="M11.921 2H10.6667V4.33333C10.6667 4.88562 10.219 5.33333 9.66667 5.33333H4.55556C4.00327 5.33333 3.55556 4.88562 3.55556 4.33333V2H2V14H4V9C4 8.44771 4.44772 8 5 8H11C11.5523 8 12 8.44771 12 9V14H14V4.07901L11.921 2ZM11 16H14C15.1046 16 16 15.1046 16 14V3.6648C16 3.39958 15.8946 3.14523 15.7071 2.95769L13.0423 0.292894C12.8548 0.105357 12.6004 0 12.3352 0H9.66667H4.55556H2C0.895431 0 0 0.895431 0 2V14C0 15.1046 0.895431 16 2 16H5H11ZM10.5 14V9.5H5.5V14H10.5ZM9.16667 2H5.05556V3.83333H9.16667V2Z" fill="#8394A5"/>
</svg>
