<svg width="38" height="38" viewBox="0 0 38 38" fill="none" xmlns="http://www.w3.org/2000/svg">
<path fill-rule="evenodd" clip-rule="evenodd" d="M0 18.8081C0 8.44444 8.44444 0 18.8081 0C29.1717 0 38 8.44444 38 18.8081C38 29.1717 29.1717 38 18.8081 38C8.44444 38 0 29.1717 0 18.8081ZM18.8081 13.0505C21.8788 13.0505 24.5657 15.7374 24.5657 18.8081C24.5657 21.8788 21.8788 24.5657 18.8081 24.5657C15.7374 24.5657 13.0505 21.8788 13.0505 18.8081C13.0505 15.7374 15.7374 13.0505 18.8081 13.0505ZM19.5758 28.404H18.0404C17.2727 28.404 16.8889 28.0202 16.8889 27.2525V25.7172C16.5051 25.7172 15.7374 25.3333 15.3535 25.3333L14.202 26.101C13.8182 26.8687 13.0505 26.8687 12.6667 26.101L11.5152 24.9495C11.5152 24.9495 11.1313 24.5657 11.1313 24.1818C11.1313 23.798 11.5152 23.798 11.5152 23.4141L12.6667 22.2626C12.2828 21.8788 12.2828 21.495 11.899 20.7273H10.3636C9.9798 20.7273 9.21212 20.3434 9.21212 19.5758V18.0404C9.21212 17.6566 9.59596 17.6566 9.59596 17.2727C9.9798 16.8889 10.3636 16.8889 10.3636 16.8889H11.899C12.2828 16.5051 12.2828 15.7374 12.6667 15.3535L11.5152 14.202C11.1313 13.8182 11.1313 13.0505 11.5152 12.6667L12.6667 11.5152C13.0505 11.1313 13.8182 11.1313 14.202 11.5152L15.3535 12.6667C15.7374 12.2828 16.5051 12.2828 16.8889 11.899V10.3636C16.8889 9.9798 17.2727 9.21212 18.0404 9.21212H19.5758C20.3434 9.21212 20.7273 9.9798 20.7273 10.3636V11.899C21.495 12.2828 21.8788 12.2828 22.2626 12.6667L23.4141 11.5152C23.798 11.1313 24.5657 11.1313 24.9495 11.5152L26.101 12.6667C26.4848 13.0505 26.4848 13.0505 26.4848 13.4343C26.4848 13.8182 26.4848 14.202 26.101 14.202L25.3333 15.3535C25.3333 15.7374 25.7172 16.5051 25.7172 16.8889H27.2525C28.0202 16.8889 28.404 17.2727 28.404 18.0404V19.5758C28.404 19.9596 28.404 20.3434 28.0202 20.7273C28.0202 20.7273 27.6364 20.7273 27.2525 20.7273H25.7172C25.7172 21.495 25.3333 21.8788 25.3333 22.2626L26.101 23.4141C26.8687 23.798 26.8687 24.5657 26.101 24.9495L24.9495 26.101C24.5657 26.8687 23.798 26.8687 23.4141 26.101L22.2626 25.3333C21.8788 25.3333 21.495 25.7172 20.7273 25.7172V27.2525C20.7273 28.0202 20.3434 28.404 19.5758 28.404Z" fill="#61D6F2"/>
</svg>
