<svg width="18" height="20" viewBox="0 0 18 20" fill="none" xmlns="http://www.w3.org/2000/svg">
<path fill-rule="evenodd" clip-rule="evenodd" d="M3 0H1V3.26756C0.402199 3.61337 0 4.25972 0 5C0 5.74028 0.402199 6.38663 1 6.73244V20H3V6.73244C3.5978 6.38663 4 5.74028 4 5C4 4.25972 3.5978 3.61337 3 3.26756V0ZM10 0H8V13.2676C7.4022 13.6134 7 14.2597 7 15C7 15.7403 7.4022 16.3866 8 16.7324V20H10V16.7324C10.5978 16.3866 11 15.7403 11 15C11 14.2597 10.5978 13.6134 10 13.2676V0ZM15 0H17V2.26756C17.5978 2.61337 18 3.25972 18 4C18 4.74028 17.5978 5.38663 17 5.73244V20H15V5.73244C14.4022 5.38663 14 4.74028 14 4C14 3.25972 14.4022 2.61337 15 2.26756V0Z" fill="#8394A5"/>
</svg>
