<svg width="23" height="23" viewBox="0 0 23 23" fill="none" xmlns="http://www.w3.org/2000/svg">
<path d="M14 17.75H9.5V20H14V17.75Z" fill="#8394A5"/>
<path d="M18.5 8.75V4.25C18.5 3.65326 18.2629 3.08097 17.841 2.65901C17.419 2.23705 16.8467 2 16.25 2H7.6775L5 4.6775V8.75H5.75V10.25H5V17.75C5 18.3467 5.23705 18.919 5.65901 19.341C6.08097 19.7629 6.65326 20 7.25 20H8V16.25H15.5V20H16.25C16.8467 20 17.419 19.7629 17.841 19.341C18.2629 18.919 18.5 18.3467 18.5 17.75V14H17.75V8.75H18.5ZM9.5 7.25H8V4.25H9.5V7.25ZM12.5 7.25H11V4.25H12.5V7.25ZM15.5 7.25H14V4.25H15.5V7.25Z" fill="#8394A5"/>
</svg>
