<svg width="23" height="23" viewBox="0 0 23 23" fill="none" xmlns="http://www.w3.org/2000/svg">
<path d="M15.4903 5.81213C12.6987 6.20505 10.5415 8.60184 10.5415 11.4998C10.5415 13.3552 9.21805 14.9038 7.46621 15.2565C7.04838 14.1832 6.0105 13.4165 4.7915 13.4165C3.20642 13.4165 1.9165 14.7064 1.9165 16.2915C1.9165 17.8766 3.20642 19.1665 4.7915 19.1665C6.06225 19.1665 7.12984 18.3328 7.50934 17.1875C10.301 16.7946 12.4582 14.3978 12.4582 11.4998C12.4582 9.6445 13.7816 8.09584 15.5335 7.74317C15.9513 8.8165 16.9892 9.58317 18.2082 9.58317C19.7933 9.58317 21.0832 8.29325 21.0832 6.70817C21.0832 5.12309 19.7933 3.83317 18.2082 3.83317C16.9374 3.83317 15.8698 4.66692 15.4903 5.81213ZM3.83317 16.2915C3.83317 15.7625 4.26346 15.3332 4.7915 15.3332C5.31955 15.3332 5.74984 15.7625 5.74984 16.2915C5.74984 16.8205 5.31955 17.2498 4.7915 17.2498C4.26346 17.2498 3.83317 16.8205 3.83317 16.2915ZM19.1665 6.70817C19.1665 7.23717 18.7362 7.6665 18.2082 7.6665C17.6801 7.6665 17.2498 7.23717 17.2498 6.70817C17.2498 6.17917 17.6801 5.74984 18.2082 5.74984C18.7362 5.74984 19.1665 6.17917 19.1665 6.70817Z" fill="#8394A5"/>
</svg>
