<svg width="18" height="18" viewBox="0 0 18 18" fill="none" xmlns="http://www.w3.org/2000/svg">
<path fill-rule="evenodd" clip-rule="evenodd" d="M8.07107 17.3241L17.6578 7.73742C17.857 7.5382 17.9629 7.26418 17.9495 6.98275L17.6624 0.952435C17.637 0.419247 17.1973 -3.37175e-07 16.6635 0L10.253 2.10736e-08C9.98783 -7.37568e-08 9.73348 0.105357 9.54594 0.292893L0.292893 9.54594C-0.0976312 9.93647 -0.0976309 10.5696 0.292893 10.9602L6.65685 17.3241C7.04738 17.7146 7.68054 17.7146 8.07107 17.3241ZM14.7886 6.36396C15.7649 5.38765 15.7649 3.80474 14.7886 2.82843C13.8123 1.85212 12.2294 1.85212 11.253 2.82843C10.2767 3.80474 10.2767 5.38765 11.253 6.36396C12.2294 7.34027 13.8123 7.34027 14.7886 6.36396Z" fill="#8394A5"/>
</svg>
