<svg width="23" height="23" viewBox="0 0 23 23" fill="none" xmlns="http://www.w3.org/2000/svg">
<path d="M18.5 16.25V5.78261C18.5 5.35039 18.1496 5 17.7174 5H4.28261C3.85038 5 3.5 5.35039 3.5 5.78261V16.25H2.75C2.33579 16.25 2 16.5858 2 17C2 17.4142 2.33579 17.75 2.75 17.75H19.25C19.6642 17.75 20 17.4142 20 17C20 16.5858 19.6642 16.25 19.25 16.25H18.5ZM12.5 15.875C12.5 16.0821 12.3321 16.25 12.125 16.25H9.875C9.66789 16.25 9.5 16.0821 9.5 15.875C9.5 15.6679 9.66789 15.5 9.875 15.5H12.125C12.3321 15.5 12.5 15.6679 12.5 15.875ZM17 14H5V6.5H17V14Z" fill="#8394A5"/>
</svg>
