<svg width="23" height="23" viewBox="0 0 23 23" fill="none" xmlns="http://www.w3.org/2000/svg">
<path d="M6.34417 10.3403C7.72417 13.0524 9.9475 15.2661 12.6596 16.6557L14.7679 14.5474C15.0267 14.2886 15.41 14.2024 15.7454 14.3174C16.8188 14.6719 17.9783 14.8636 19.1667 14.8636C19.6937 14.8636 20.125 15.2949 20.125 15.8219V19.1665C20.125 19.6936 19.6937 20.1249 19.1667 20.1249C10.1679 20.1249 2.875 12.8319 2.875 3.83319C2.875 3.30611 3.30625 2.87486 3.83333 2.87486H7.1875C7.71458 2.87486 8.14583 3.30611 8.14583 3.83319C8.14583 5.03111 8.3375 6.18111 8.69208 7.25444C8.7975 7.58986 8.72083 7.96361 8.4525 8.23194L6.34417 10.3403Z" fill="#8394A5"/>
<path fill-rule="evenodd" clip-rule="evenodd" d="M11.9581 8.36382L14.8954 11.301L19.3012 6.89521L16.364 3.958L11.9581 8.36382ZM10.4895 7.87428C10.2192 8.14465 10.2192 8.58299 10.4895 8.85335L14.4058 12.7696C14.6762 13.04 15.1145 13.04 15.3849 12.7696L20.7698 7.38475C21.0401 7.11439 21.0401 6.67604 20.7698 6.40568L16.8535 2.48939C16.5831 2.21903 16.1448 2.21903 15.8744 2.48939L10.4895 7.87428Z" fill="#8394A5"/>
</svg>
