<svg width="23" height="23" viewBox="0 0 23 23" fill="none" xmlns="http://www.w3.org/2000/svg">
<path d="M18.2 5H3.8C2.81 5 2.009 5.81 2.009 6.8L2 15.8C2 16.79 2.81 17.6 3.8 17.6H18.2C19.19 17.6 20 16.79 20 15.8V6.8C20 5.81 19.19 5 18.2 5ZM10.1 7.7H11.9V9.5H10.1V7.7ZM10.1 10.4H11.9V12.2H10.1V10.4ZM7.4 7.7H9.2V9.5H7.4V7.7ZM7.4 10.4H9.2V12.2H7.4V10.4ZM6.5 12.2H4.7V10.4H6.5V12.2ZM6.5 9.5H4.7V7.7H6.5V9.5ZM14.6 15.8H7.4V14H14.6V15.8ZM14.6 12.2H12.8V10.4H14.6V12.2ZM14.6 9.5H12.8V7.7H14.6V9.5ZM17.3 12.2H15.5V10.4H17.3V12.2ZM17.3 9.5H15.5V7.7H17.3V9.5Z" fill="#8394A5"/>
<circle cx="21" cy="2" r="2" fill="#8394A5"/>
</svg>
