<svg width="23" height="23" viewBox="0 0 23 23" fill="none" xmlns="http://www.w3.org/2000/svg">
<path fill-rule="evenodd" clip-rule="evenodd" d="M2 7.61728C2 7.27637 2.28738 7 2.64189 7H20.3581C20.7126 7 21 7.27637 21 7.61728V9.59372C20.9815 9.59307 20.963 9.5927 20.9444 9.59262L20.9358 9.59259C19.9786 9.59259 19.2027 10.3388 19.2027 11.2593C19.2027 12.1797 19.9786 12.9259 20.9358 12.9259C20.9434 12.9259 20.9509 12.9259 20.9584 12.9258L20.9686 12.9256C20.9791 12.9254 20.9896 12.9252 21 12.9248V14.7778C21 15.1187 20.7126 15.3951 20.3581 15.3951H18.9459V17H17.4054V15.3951H15.6081V17H14.0676V15.3951H12.2703V17H10.7297V15.3951H8.93243V17H7.39189V15.3951H5.59459V17H4.05405V15.3951H2.64189C2.28738 15.3951 2 15.1187 2 14.7778V12.9248C2.92743 12.8923 3.66892 12.1591 3.66892 11.2593C3.66892 10.3595 2.92743 9.62618 2 9.59372V7.61728ZM5.72297 8.85185H7.64865V13.5432H5.72297V8.85185ZM12.527 8.85185H10.6014V13.5432H12.527V8.85185ZM15.4797 8.85185H17.4054V13.5432H15.4797V8.85185Z" fill="#8394A5"/>
</svg>
