<svg width="23" height="23" viewBox="0 0 23 23" fill="none" xmlns="http://www.w3.org/2000/svg">
<path d="M7.05561 17.139C6.69067 16.7741 6.69133 16.1811 7.05561 15.8168C7.41989 15.4525 8.01292 15.4519 8.37785 15.8168C8.74279 16.1817 8.74213 16.7747 8.37785 17.139C8.01358 17.5033 7.42055 17.504 7.05561 17.139Z" fill="#8394A5"/>
<path d="M17.139 7.0556C17.504 7.42056 17.5033 8.01359 17.139 8.37785C16.7748 8.74214 16.1817 8.74281 15.8168 8.37785C15.4519 8.01292 15.4525 7.41989 15.8168 7.0556C16.1811 6.69134 16.7741 6.69067 17.139 7.0556Z" fill="#8394A5"/>
<path fill-rule="evenodd" clip-rule="evenodd" d="M10.2389 5.16403C10.7328 6.20528 10.5609 7.48654 9.7001 8.34732C8.6066 9.44083 6.82686 9.44083 5.73337 8.34732C4.63987 7.25384 4.63987 5.4741 5.73337 4.38059C6.59415 3.51981 7.8754 3.34792 8.91733 3.84112L9.14938 3.60908C9.3829 3.37555 9.57744 3.18004 9.75631 3H4.5C3.67157 3 3 3.67156 3 4.5V19.5C3 20.3284 3.67157 21 4.5 21H19.5C19.5569 21 19.6131 20.9968 19.6684 20.9907L17.9167 19.2389C16.8754 19.7328 15.5941 19.5609 14.7334 18.7001C13.6399 17.6066 13.6399 15.8269 14.7334 14.7334C15.8269 13.6399 17.6066 13.6399 18.7001 14.7334C19.5609 15.5942 19.7328 16.8754 19.2396 17.9173L19.4716 18.1494C19.7857 18.4634 20.031 18.707 20.2624 18.9367L20.2663 18.9406L20.2677 18.9419C20.5035 19.1761 20.7253 19.3963 20.9913 19.6627C20.997 19.6093 21 19.555 21 19.5V4.5C21 3.67156 20.3284 3 19.5 3H12.4029L10.2389 5.16403ZM10.2389 15.278L12.7584 12.7584C13.4504 12.0757 13.8292 11.6943 14.2542 11.2662C14.485 11.0337 14.7295 10.7874 15.0453 10.4716L15.2773 10.2396C16.3193 10.7328 17.6005 10.5609 18.4613 9.7001C19.5548 8.6066 19.5548 6.82686 18.4613 5.73338C17.3678 4.63987 15.5881 4.63987 14.4946 5.73338C13.6338 6.59415 13.4619 7.87541 13.9557 8.91666L11.4362 11.4362C10.7462 12.1169 10.3677 12.4982 9.94415 12.9248L9.94345 12.9255L9.94214 12.9268L9.94046 12.9285C9.70963 13.161 9.46514 13.4073 9.14938 13.723L8.91733 13.9551C7.8754 13.4619 6.59415 13.6338 5.73337 14.4945C4.63987 15.588 4.63987 17.3678 5.73337 18.4613C6.82686 19.5548 8.6066 19.5548 9.7001 18.4613C10.5609 17.6005 10.7328 16.3193 10.2389 15.278Z" fill="#8394A5"/>
<path d="M7.05561 5.70284C6.69133 6.06713 6.69067 6.66014 7.05561 7.02509C7.42055 7.39002 8.01358 7.38936 8.37785 7.02509C8.74213 6.6608 8.74279 6.06777 8.37785 5.70284C8.01292 5.33791 7.41989 5.33855 7.05561 5.70284Z" fill="#8394A5"/>
<path d="M16.0556 16.0556C16.4205 15.6907 17.0136 15.6913 17.3779 16.0556C17.7421 16.4199 17.7428 17.0129 17.3779 17.3779C17.0129 17.7428 16.4199 17.7421 16.0556 17.3779C15.6913 17.0136 15.6907 16.4206 16.0556 16.0556Z" fill="#8394A5"/>
</svg>
