<svg width="23" height="23" viewBox="0 0 23 23" fill="none" xmlns="http://www.w3.org/2000/svg">
<path d="M19.1 10.2H17.3V3H15.5V10.2H6.5V3H4.7V10.2H2.9C2.66131 10.2 2.43239 10.2948 2.2636 10.4636C2.09482 10.6324 2 10.8613 2 11.1V18.3C2 18.5387 2.09482 18.7676 2.2636 18.9364C2.43239 19.1052 2.66131 19.2 2.9 19.2H19.1C19.3387 19.2 19.5676 19.1052 19.7364 18.9364C19.9052 18.7676 20 18.5387 20 18.3V11.1C20 10.8613 19.9052 10.6324 19.7364 10.4636C19.5676 10.2948 19.3387 10.2 19.1 10.2ZM7.4 15.6H5.6V13.8H7.4V15.6ZM10.1 15.6H8.3V13.8H10.1V15.6ZM16.4 15.6H14.6V13.8H16.4V15.6Z" fill="#8394A5"/>
</svg>
