<svg width="23" height="23" viewBox="0 0 23 23" fill="none" xmlns="http://www.w3.org/2000/svg">
<path d="M17.7346 3.21595C17.6074 3.11794 17.4592 3.05075 17.3016 3.01966C17.1441 2.98857 16.9815 2.99442 16.8265 3.03675L8.81824 5.1895C8.54037 5.26413 8.29518 5.42899 8.12121 5.65816C7.94724 5.88732 7.85437 6.16781 7.85718 6.45551V15.5358C7.85718 15.8066 7.682 16.0404 7.4108 16.1316L7.40598 16.1336L5.31671 16.8568C4.51757 17.124 4.00007 17.8661 4.00007 18.7464C3.99715 19.1045 4.08042 19.458 4.24287 19.777C4.40532 20.0961 4.64217 20.3715 4.93341 20.5797C5.30846 20.8522 5.75997 20.9993 6.22353 21C6.46605 20.9996 6.7069 20.9598 6.9367 20.8823L6.95196 20.8771L7.82945 20.558C8.21009 20.431 8.54142 20.1879 8.77696 19.8631C9.01251 19.5382 9.14046 19.1477 9.14288 18.7464V10.2286C9.14288 9.93574 9.33453 9.69789 9.63144 9.62316L9.63988 9.62075L16.6562 7.74684C16.6799 7.74072 16.7047 7.74009 16.7287 7.74501C16.7527 7.74994 16.7752 7.76027 16.7946 7.77523C16.814 7.79019 16.8297 7.80939 16.8405 7.83134C16.8513 7.8533 16.857 7.87744 16.8571 7.90193V13.6044C16.8571 13.8756 16.6863 14.1018 16.4107 14.1942L16.4007 14.1978L14.356 14.9255C13.9584 15.0562 13.6127 15.3101 13.3689 15.6504C13.1251 15.9907 12.9959 16.3997 13 16.8183C12.9964 17.1774 13.0793 17.5321 13.2418 17.8524C13.4042 18.1727 13.6414 18.4492 13.9333 18.6584C14.2191 18.865 14.5504 18.9997 14.8993 19.0511C15.2481 19.1025 15.6042 19.0691 15.9374 18.9537L15.9519 18.9489L16.8294 18.6295C17.21 18.5025 17.5413 18.2595 17.7768 17.9347C18.0124 17.6099 18.1403 17.2195 18.1428 16.8183V4.04482C18.1437 3.88447 18.1072 3.72612 18.0364 3.58226C17.9655 3.43841 17.8622 3.313 17.7346 3.21595Z" fill="#8394A5"/>
</svg>
