<svg width="23" height="23" viewBox="0 0 23 23" fill="none" xmlns="http://www.w3.org/2000/svg">
<path fill-rule="evenodd" clip-rule="evenodd" d="M7.64513 18.5796L7.64373 19.1385C7.07505 19.1371 4.62246 19.2239 4.89559 20.2086C5.28919 20.3137 12.8375 20.3095 13.189 20.2058C13.3347 19.7268 12.6904 19.4677 12.2212 19.3192C11.6175 19.1287 11.095 19.1427 10.4423 19.1385V18.5796C11.4312 18.5824 12.42 18.5768 13.4075 18.5796C14.5659 18.5838 15.1332 18.6258 15.699 17.9059C16.1753 17.3008 16.0394 16.1943 16.038 15.2782V9.34773C16.0408 8.35885 15.6808 7.76216 14.9287 7.49043C14.3614 7.28593 10.0011 7.38818 9.04301 7.38958C8.04292 7.39098 3.81147 7.27613 3.19797 7.47502C2.44861 7.72014 2.05221 8.33084 2.04941 9.2903L2.05081 15.2222C2.05081 16.106 1.90374 17.256 2.36176 17.8751C2.90523 18.6104 3.48651 18.5838 4.62386 18.5796C5.62955 18.5754 6.63944 18.5726 7.64513 18.5796ZM3.72743 9.73852V16.1732C3.72463 17.0361 3.45709 16.8988 5.18413 16.9016L14.0799 16.9002C14.5001 16.9002 14.36 16.5248 14.36 15.9491V9.62787C14.3628 8.8757 14.4258 9.0704 12.7926 9.0662H4.39975C3.62938 9.0662 3.72743 8.96815 3.72743 9.73852ZM11.5628 6.82791L18.2721 6.82931L18.2777 7.38958L16.059 7.39238C16.6263 7.68372 16.6445 8.34484 16.6529 9.06479L18.2763 9.0676L18.2749 9.62367L16.5997 9.62787C16.5773 11.6743 16.5913 13.7361 16.5983 15.7825C16.6067 18.5278 16.6319 19.1231 13.8011 19.1413L13.7997 20.2576C15.1962 20.2758 16.5997 20.252 17.9962 20.259C18.7651 20.2632 19.1321 20.112 19.5117 19.7044C19.9627 19.2211 19.9543 18.8093 19.9529 18.0193C19.9529 17.6328 20.0075 5.9945 19.9305 5.44684C19.8507 4.88096 19.4683 4.44815 19.0775 4.23665C18.5466 3.94811 17.8197 4.03495 17.1572 4.03215C16.4666 4.03075 15.7761 4.03355 15.0869 4.03215C13.7549 4.02935 12.4032 3.74501 11.7645 4.90757C11.4886 5.41322 11.553 6.17519 11.5628 6.82791ZM17.1586 12.9839H18.2763L18.2735 12.4278L17.9962 12.4222L17.8281 12.4236L17.1572 12.425L17.1586 12.9839ZM12.8333 17.4325C12.4481 17.5907 12.6624 18.2154 13.0952 18.0474C13.479 17.8975 13.2451 17.2644 12.8333 17.4325Z" fill="#8394A5"/>
</svg>
