<svg width="38" height="38" viewBox="0 0 38 38" fill="none" xmlns="http://www.w3.org/2000/svg">
<mask id="path-1-inside-1" fill="white">
<path fill-rule="evenodd" clip-rule="evenodd" d="M19 38C29.4934 38 38 29.4934 38 19C38 8.50659 29.4934 0 19 0C8.50659 0 0 8.50659 0 19C0 29.4934 8.50659 38 19 38ZM20.2254 25.4491C21.6836 26.2638 22.6574 26.5145 23.3507 26.5145C23.7134 26.5184 24.0722 26.4399 24.4001 26.2848C25.0386 25.9875 25.4211 25.5503 25.7986 24.9857C26.0104 24.6647 26.1922 24.325 26.3416 23.9707C26.3546 23.9401 26.3671 23.9122 26.3787 23.8863L26.3846 23.873L26.3872 23.8671C26.4657 23.6896 26.5821 23.4264 26.4556 23.0917C26.3708 22.8669 26.1971 22.6666 25.8856 22.3527C25.2453 21.7067 23.7853 20.8362 23.1461 20.5138L23.1405 20.511C22.6538 20.2654 22.3589 20.1167 22.0146 20.1167H22.0125C21.6154 20.1167 21.3164 20.316 20.9378 20.5976C20.8898 20.6329 20.8436 20.6683 20.7985 20.7028C20.7906 20.7088 20.7827 20.7148 20.7748 20.7208C20.4083 21.0007 20.3036 21.0625 20.1125 21.0216C19.7428 20.9428 18.6781 20.3895 17.7075 19.421C16.7369 18.4525 16.1463 17.3562 16.0671 16.9879C16.028 16.8047 16.0874 16.7021 16.3576 16.3469C16.4024 16.288 16.4485 16.2272 16.4951 16.1637C16.7433 15.8252 16.9479 15.5116 16.9479 15.105C16.9475 14.7585 16.8036 14.4494 16.586 13.9821L16.5845 13.9789C16.2592 13.2828 15.3774 11.8654 14.7321 11.229C14.4175 10.9183 14.2165 10.7453 13.9913 10.6608C13.6539 10.5329 13.3876 10.6526 13.2118 10.7318C13.1823 10.745 13.1493 10.7595 13.1138 10.7748C12.7589 10.9231 12.4184 11.1038 12.0967 11.3146C11.5302 11.6928 11.092 12.0739 10.7951 12.711C10.5458 13.2441 10.3227 14.4913 11.6311 16.8708C12.7892 18.9781 13.6166 20.0784 15.3171 21.7777C17.0807 23.5367 18.4522 24.4547 20.2254 25.4491Z"/>
</mask>
<path fill-rule="evenodd" clip-rule="evenodd" d="M19 38C29.4934 38 38 29.4934 38 19C38 8.50659 29.4934 0 19 0C8.50659 0 0 8.50659 0 19C0 29.4934 8.50659 38 19 38ZM20.2254 25.4491C21.6836 26.2638 22.6574 26.5145 23.3507 26.5145C23.7134 26.5184 24.0722 26.4399 24.4001 26.2848C25.0386 25.9875 25.4211 25.5503 25.7986 24.9857C26.0104 24.6647 26.1922 24.325 26.3416 23.9707C26.3546 23.9401 26.3671 23.9122 26.3787 23.8863L26.3846 23.873L26.3872 23.8671C26.4657 23.6896 26.5821 23.4264 26.4556 23.0917C26.3708 22.8669 26.1971 22.6666 25.8856 22.3527C25.2453 21.7067 23.7853 20.8362 23.1461 20.5138L23.1405 20.511C22.6538 20.2654 22.3589 20.1167 22.0146 20.1167H22.0125C21.6154 20.1167 21.3164 20.316 20.9378 20.5976C20.8898 20.6329 20.8436 20.6683 20.7985 20.7028C20.7906 20.7088 20.7827 20.7148 20.7748 20.7208C20.4083 21.0007 20.3036 21.0625 20.1125 21.0216C19.7428 20.9428 18.6781 20.3895 17.7075 19.421C16.7369 18.4525 16.1463 17.3562 16.0671 16.9879C16.028 16.8047 16.0874 16.7021 16.3576 16.3469C16.4024 16.288 16.4485 16.2272 16.4951 16.1637C16.7433 15.8252 16.9479 15.5116 16.9479 15.105C16.9475 14.7585 16.8036 14.4494 16.586 13.9821L16.5845 13.9789C16.2592 13.2828 15.3774 11.8654 14.7321 11.229C14.4175 10.9183 14.2165 10.7453 13.9913 10.6608C13.6539 10.5329 13.3876 10.6526 13.2118 10.7318C13.1823 10.745 13.1493 10.7595 13.1138 10.7748C12.7589 10.9231 12.4184 11.1038 12.0967 11.3146C11.5302 11.6928 11.092 12.0739 10.7951 12.711C10.5458 13.2441 10.3227 14.4913 11.6311 16.8708C12.7892 18.9781 13.6166 20.0784 15.3171 21.7777C17.0807 23.5367 18.4522 24.4547 20.2254 25.4491Z" fill="#BDD0DA"/>
<path d="M23.3507 26.5145L23.3614 25.5145H23.3507V26.5145ZM20.2254 25.4491L19.7363 26.3213L19.7377 26.3221L20.2254 25.4491ZM24.4001 26.2848L23.9781 25.3782L23.9725 25.3808L24.4001 26.2848ZM25.7986 24.9857L26.63 25.5415L26.6333 25.5364L25.7986 24.9857ZM26.3416 23.9707L25.4216 23.5789L25.4203 23.5819L26.3416 23.9707ZM26.3787 23.8863L27.2918 24.294L27.2919 24.2939L26.3787 23.8863ZM26.3846 23.873L27.2978 24.2806L27.2992 24.2773L26.3846 23.873ZM26.3872 23.8671L25.4726 23.4627L25.4726 23.4629L26.3872 23.8671ZM26.4556 23.0917L25.5201 23.445L25.5202 23.4451L26.4556 23.0917ZM25.8856 22.3527L25.1754 23.0567L25.1757 23.057L25.8856 22.3527ZM23.1461 20.5138L22.6957 21.4066L23.1461 20.5138ZM23.1405 20.511L23.5909 19.6181L23.5908 19.6181L23.1405 20.511ZM20.9378 20.5976L21.5305 21.403L21.5347 21.3999L20.9378 20.5976ZM20.7985 20.7028L21.4058 21.4972L21.4058 21.4972L20.7985 20.7028ZM20.7748 20.7208L20.1681 19.9259L20.168 19.926L20.7748 20.7208ZM20.1125 21.0216L20.3215 20.0437L20.3211 20.0436L20.1125 21.0216ZM17.7075 19.421L17.0012 20.1289L17.7075 19.421ZM16.0671 16.9879L15.0891 17.1964L15.0895 17.1982L16.0671 16.9879ZM16.3576 16.3469L17.1534 16.9525L17.1541 16.9515L16.3576 16.3469ZM16.4951 16.1637L15.6887 15.5722L15.6881 15.5731L16.4951 16.1637ZM16.9479 15.105H17.9479V15.104L16.9479 15.105ZM16.586 13.9821L17.4926 13.56L17.4926 13.56L16.586 13.9821ZM16.5845 13.9789L17.4911 13.5567L17.4905 13.5555L16.5845 13.9789ZM14.7321 11.229L14.0295 11.9405L14.03 11.941L14.7321 11.229ZM13.9913 10.6608L13.637 11.5959L13.6399 11.597L13.9913 10.6608ZM13.2118 10.7318L13.6189 11.6452L13.6225 11.6436L13.2118 10.7318ZM13.1138 10.7748L13.4994 11.6975L13.5088 11.6935L13.1138 10.7748ZM12.0967 11.3146L11.5486 10.4781L11.5414 10.483L12.0967 11.3146ZM10.7951 12.711L11.7009 13.1347L11.7015 13.1334L10.7951 12.711ZM11.6311 16.8708L12.5075 16.3891L12.5073 16.3889L11.6311 16.8708ZM15.3171 21.7777L14.6102 22.485L14.6109 22.4857L15.3171 21.7777ZM37 19C37 28.9411 28.9411 37 19 37V39C30.0457 39 39 30.0457 39 19H37ZM19 1C28.9411 1 37 9.05888 37 19H39C39 7.95431 30.0457 -1 19 -1V1ZM1 19C1 9.05888 9.05888 1 19 1V-1C7.95431 -1 -1 7.95431 -1 19H1ZM19 37C9.05888 37 1 28.9411 1 19H-1C-1 30.0457 7.95431 39 19 39V37ZM23.3507 25.5145C22.8969 25.5145 22.0968 25.3492 20.7132 24.5761L19.7377 26.3221C21.2705 27.1785 22.4179 27.5145 23.3507 27.5145V25.5145ZM23.9725 25.3808C23.7816 25.4711 23.5726 25.5169 23.3614 25.5146L23.3399 27.5145C23.8541 27.52 24.3628 27.4086 24.8277 27.1888L23.9725 25.3808ZM24.9673 24.4299C24.6366 24.9245 24.3794 25.1913 23.9781 25.3782L24.8221 27.1914C25.6978 26.7837 26.2056 26.1762 26.63 25.5415L24.9673 24.4299ZM25.4203 23.5819C25.2947 23.8797 25.1419 24.1652 24.9639 24.435L26.6333 25.5364C26.8789 25.1642 27.0896 24.7702 27.263 24.3594L25.4203 23.5819ZM25.4656 23.4786C25.4543 23.5038 25.4385 23.5393 25.4216 23.5789L27.2617 24.3625C27.2708 24.341 27.2799 24.3206 27.2918 24.294L25.4656 23.4786ZM25.4714 23.4655L25.4655 23.4787L27.2919 24.2939L27.2978 24.2806L25.4714 23.4655ZM25.4726 23.4629L25.47 23.4688L27.2992 24.2773L27.3019 24.2714L25.4726 23.4629ZM25.5202 23.4451C25.5179 23.439 25.5137 23.4247 25.5122 23.4047C25.5107 23.3854 25.5124 23.3705 25.5137 23.3632C25.5148 23.3571 25.515 23.36 25.5091 23.3761C25.5062 23.3841 25.5021 23.3945 25.4961 23.4089C25.4897 23.4241 25.4829 23.4396 25.4726 23.4627L27.3018 24.2716C27.3846 24.0844 27.672 23.4818 27.3911 22.7383L25.5202 23.4451ZM25.1757 23.057C25.328 23.2105 25.4156 23.3057 25.4716 23.3763C25.522 23.4401 25.5246 23.4568 25.5201 23.445L27.3912 22.7385C27.2202 22.2857 26.8899 21.9451 26.5956 21.6484L25.1757 23.057ZM22.6957 21.4066C22.9786 21.5493 23.4726 21.8292 23.9733 22.1522C24.4884 22.4845 24.9361 22.8152 25.1754 23.0567L26.5959 21.6487C26.1949 21.2442 25.5924 20.8166 25.0576 20.4716C24.5084 20.1173 23.9528 19.8007 23.5965 19.6209L22.6957 21.4066ZM22.6901 21.4038L22.6957 21.4066L23.5965 19.6209L23.5909 19.6181L22.6901 21.4038ZM22.0146 21.1167C22.0309 21.1167 22.067 21.1176 22.1671 21.1559C22.2868 21.2016 22.4319 21.2735 22.6902 21.4038L23.5908 19.6181C23.1692 19.4054 22.6452 19.1167 22.0146 19.1167V21.1167ZM22.0125 21.1167H22.0146V19.1167H22.0125V21.1167ZM21.5347 21.3999C21.7254 21.2581 21.83 21.1883 21.9119 21.1477C21.9736 21.1172 21.9963 21.1167 22.0125 21.1167V19.1167C21.246 19.1167 20.7017 19.5269 20.341 19.7952L21.5347 21.3999ZM21.4058 21.4972C21.4519 21.4619 21.491 21.4321 21.5305 21.403L20.3452 19.7921C20.2886 19.8338 20.2352 19.8746 20.1911 19.9083L21.4058 21.4972ZM21.3816 21.5157C21.3898 21.5094 21.398 21.5032 21.4058 21.4972L20.1912 19.9083C20.1831 19.9144 20.1756 19.9202 20.1681 19.9259L21.3816 21.5157ZM19.9035 21.9995C20.1973 22.0623 20.4965 22.0415 20.8052 21.8956C21.0158 21.796 21.2218 21.6377 21.3817 21.5156L20.168 19.926C20.0772 19.9953 20.0181 20.0392 19.9747 20.0692C19.9297 20.1003 19.9274 20.0983 19.9505 20.0874C19.982 20.0725 20.0491 20.0462 20.1413 20.0366C20.232 20.0271 20.2991 20.0389 20.3215 20.0437L19.9035 21.9995ZM17.0012 20.1289C17.5463 20.6728 18.1167 21.0996 18.6079 21.4045C19.0671 21.6896 19.5452 21.9231 19.9039 21.9996L20.3211 20.0436C20.3376 20.0471 20.2813 20.0343 20.1409 19.9686C20.014 19.9093 19.8505 19.8219 19.6628 19.7053C19.2865 19.4718 18.8393 19.1376 18.4138 18.7131L17.0012 20.1289ZM15.0895 17.1982C15.1681 17.564 15.4175 18.0546 15.7077 18.5137C16.0211 19.0095 16.4567 19.5856 17.0012 20.1289L18.4138 18.7131C17.9877 18.2879 17.6427 17.8317 17.3983 17.4451C17.2764 17.2522 17.1842 17.084 17.1214 16.9536C17.051 16.8073 17.0396 16.7538 17.0448 16.7777L15.0895 17.1982ZM15.5618 15.7413C15.4436 15.8967 15.2891 16.0988 15.1915 16.3062C15.0486 16.61 15.0271 16.9057 15.0891 17.1964L17.0451 16.7794C17.0505 16.8044 17.0622 16.873 17.0526 16.9646C17.0428 17.0575 17.0164 17.1252 17.0013 17.1575C16.9898 17.1818 16.9871 17.1808 17.0165 17.138C17.0449 17.0968 17.0868 17.04 17.1534 16.9525L15.5618 15.7413ZM15.6881 15.5731C15.6477 15.6283 15.607 15.6818 15.5611 15.7423L17.1541 16.9515C17.1977 16.8941 17.2494 16.8262 17.302 16.7542L15.6881 15.5731ZM15.9479 15.105C15.9479 15.1529 15.9404 15.229 15.6887 15.5722L17.3014 16.7551C17.5461 16.4214 17.9479 15.8703 17.9479 15.105H15.9479ZM15.6795 14.4041C15.9244 14.9302 15.9478 15.0246 15.9479 15.106L17.9479 15.104C17.9472 14.4923 17.6828 13.9686 17.4926 13.56L15.6795 14.4041ZM15.678 14.401L15.6795 14.4042L17.4926 13.56L17.4911 13.5568L15.678 14.401ZM14.03 11.941C14.2755 12.1832 14.6109 12.6251 14.9422 13.1301C15.2683 13.6271 15.543 14.1121 15.6786 14.4022L17.4905 13.5555C17.3008 13.1496 16.9719 12.5778 16.6144 12.033C16.2622 11.4962 15.8341 10.9112 15.4343 10.517L14.03 11.941ZM13.6399 11.597C13.6288 11.5928 13.6459 11.5957 13.7097 11.6459C13.7805 11.7016 13.8759 11.7888 14.0295 11.9405L15.4348 10.5175C15.1364 10.2227 14.7954 9.89448 14.3428 9.72458L13.6399 11.597ZM13.6225 11.6436C13.6453 11.6333 13.6606 11.6265 13.6755 11.6201C13.6895 11.6141 13.6998 11.61 13.7077 11.6071C13.7235 11.6012 13.7264 11.6013 13.7203 11.6024C13.7132 11.6038 13.6982 11.6056 13.6786 11.6041C13.6693 11.6034 13.6605 11.6021 13.6527 11.6004C13.6449 11.5987 13.6396 11.5969 13.637 11.5959L14.3457 9.72568C13.5953 9.44132 12.9867 9.73645 12.801 9.82007L13.6225 11.6436ZM13.5088 11.6935C13.5495 11.676 13.5867 11.6595 13.6189 11.6452L12.8046 9.81846C12.7779 9.83036 12.7491 9.84306 12.7187 9.85612L13.5088 11.6935ZM12.6447 12.1511C12.915 11.9739 13.2011 11.8221 13.4994 11.6975L12.7282 9.85212C12.3166 10.0241 11.9217 10.2337 11.5486 10.4781L12.6447 12.1511ZM11.7015 13.1334C11.8872 12.7349 12.1535 12.4791 12.652 12.1462L11.5414 10.483C10.907 10.9065 10.2968 11.4129 9.88866 12.2886L11.7015 13.1334ZM12.5073 16.3889C11.2905 14.1759 11.6336 13.2785 11.7009 13.1347L9.88924 12.2874C9.45789 13.2097 9.35495 14.8067 10.7548 17.3526L12.5073 16.3889ZM16.0239 21.0704C14.3902 19.4376 13.6199 18.4134 12.5075 16.3891L10.7547 17.3524C11.9585 19.5429 12.8431 20.7191 14.6102 22.485L16.0239 21.0704ZM20.7146 24.5769C19.0003 23.6156 17.7076 22.7496 16.0232 21.0697L14.6109 22.4857C16.4538 24.3238 17.9041 25.2939 19.7363 26.3213L20.7146 24.5769Z" fill="#BDD0DA" mask="url(#path-1-inside-1)"/>
</svg>
