<svg width="41" height="40" viewBox="0 0 41 40" fill="none" xmlns="http://www.w3.org/2000/svg">
<path d="M40 20C40 30.7696 31.2696 39.5 20.5 39.5C9.73045 39.5 1 30.7696 1 20C1 9.23045 9.73045 0.5 20.5 0.5C31.2696 0.5 40 9.23045 40 20Z" fill="#BDD0DA" stroke="#BDD0DA"/>
<path fill-rule="evenodd" clip-rule="evenodd" d="M27.2648 24.0678C28.0255 23.9097 28.7764 24.3938 28.9344 25.1545C29.1024 25.9152 28.6084 26.666 27.8477 26.8241C27.087 26.992 26.3362 26.5079 26.1781 25.7472C26.0201 24.9766 26.5041 24.2357 27.2648 24.0678ZM22.1671 8.97225C22.8488 8.83394 25.3483 8.20167 25.8422 8.20167C26.0695 8.16216 26.2868 8.21155 26.4745 8.3301C26.6622 8.45853 26.8104 8.65612 26.8598 8.89322L30.9202 28.0689C30.9794 28.3158 30.9202 28.5529 30.8016 28.7406C30.6732 28.9382 30.4756 29.0864 30.2385 29.1358C29.5568 29.2741 27.0574 29.9064 26.5634 29.9064C26.3362 29.9459 26.1188 29.8965 25.9311 29.778C25.7434 29.6495 25.5952 29.4519 25.5459 29.2148L21.4756 10.0392C21.4262 9.79223 21.4855 9.55513 21.604 9.36742C21.7325 9.16984 21.93 9.03153 22.1671 8.97225ZM25.9311 8.8537L22.3055 9.62428C22.2462 9.63416 22.1968 9.67368 22.1573 9.72308C22.1276 9.77247 22.1177 9.84163 22.1276 9.9009L26.1979 29.0765C26.2078 29.1358 26.2473 29.1951 26.2967 29.2247C26.3461 29.2544 26.4053 29.2642 26.4646 29.2544L30.1002 28.4838C30.1595 28.4739 30.2089 28.4344 30.2385 28.385C30.278 28.3356 30.2879 28.2763 30.278 28.2072L26.2078 9.03153C26.1979 8.97225 26.1584 8.92286 26.109 8.89322C26.0596 8.8537 26.0003 8.84382 25.9311 8.8537ZM8.9487 8.07324H12.6633C12.9103 8.07324 13.1276 8.18191 13.2956 8.33998C13.4536 8.49805 13.5524 8.72527 13.5524 8.97225V28.5727C13.5524 28.8197 13.4536 29.0469 13.2956 29.205C13.1276 29.3729 12.9103 29.4717 12.6633 29.4717H8.9487C8.70172 29.4717 8.48438 29.3729 8.31643 29.205C8.15836 29.0469 8.05957 28.8197 8.05957 28.5727V8.97225C8.05957 8.72527 8.15836 8.49805 8.31643 8.33998C8.48438 8.18191 8.70172 8.07324 8.9487 8.07324ZM10.806 23.6627C11.7347 23.6627 12.4954 24.4135 12.4954 25.3521C12.4954 26.2807 11.7347 27.0315 10.806 27.0315C9.87735 27.0315 9.11665 26.2807 9.11665 25.3521C9.11665 24.4135 9.87735 23.6627 10.806 23.6627ZM15.8049 8.07324H19.5195C19.7665 8.07324 19.9838 8.18191 20.1518 8.33998C20.3098 8.49805 20.4086 8.72527 20.4086 8.97225V28.5727C20.4086 28.8197 20.3098 29.0469 20.1518 29.205C19.9838 29.3729 19.7665 29.4717 19.5195 29.4717H15.8049C15.5579 29.4717 15.3406 29.3729 15.1726 29.205C15.0146 29.0469 14.9158 28.8197 14.9158 28.5727V8.97225C14.9158 8.72527 15.0146 8.49805 15.1726 8.33998C15.3406 8.18191 15.5579 8.07324 15.8049 8.07324ZM17.6622 23.6627C18.5909 23.6627 19.3516 24.4135 19.3516 25.3521C19.3516 26.2807 18.5909 27.0315 17.6622 27.0315C16.7336 27.0315 15.9729 26.2807 15.9729 25.3521C15.9729 24.4135 16.7336 23.6627 17.6622 23.6627Z" fill="white"/>
</svg>
