<svg width="33" height="39" viewBox="0 0 33 39" fill="none" xmlns="http://www.w3.org/2000/svg">
<path fill-rule="evenodd" clip-rule="evenodd" d="M1.19 0H29.3702C29.9354 0 30.4198 0.484471 30.4198 1.13043V3.63354H32.0348C32.5193 3.63354 32.923 4.11801 32.923 4.60249V9.68944C32.923 10.2547 32.5193 10.6584 32.0348 10.6584H30.4198V12.1118H32.0348C32.5193 12.1118 32.923 12.5155 32.923 13.0807V18.1677C32.923 18.6522 32.5193 19.1366 32.0348 19.1366H30.4198V20.5901H32.0348C32.5193 20.5901 32.923 20.9938 32.923 21.4783V26.646C32.923 27.1304 32.5193 27.5342 32.0348 27.5342H30.4198V37.9503C30.4198 38.5155 29.9354 39 29.3702 39H1.19C0.544038 39 0.0595703 38.5155 0.0595703 37.9503V1.13043C0.0595703 0.484471 0.544038 0 1.19 0ZM3.45087 2.82609H27.1094C27.2709 2.82609 27.4323 2.98758 27.4323 3.14907V35.9317C27.4323 36.0932 27.2709 36.2547 27.1094 36.2547H3.45087C3.20863 36.2547 3.12794 36.0932 3.12794 35.9317V3.14907C3.12794 2.98758 3.20863 2.82609 3.45087 2.82609ZM7.40744 22.5279H23.4758V24.0621H7.40744V22.5279ZM7.40744 26.646H23.4758V28.1801H7.40744V26.646ZM7.40744 30.764H23.4758V32.2981H7.40744V30.764ZM10.395 11.3851C10.2335 11.4658 9.18386 11.6273 8.94162 11.6273C8.29566 11.7888 8.37635 11.9503 8.37635 12.9193C8.37635 13.8882 8.29566 14.0497 8.94162 14.1304C9.34535 14.2112 9.91051 14.3727 10.395 14.4534C10.395 14.6149 10.4758 14.7764 10.5565 14.9379C10.7987 15.5031 10.8795 15.2609 10.5565 15.7453L9.82983 16.8758C9.66834 17.1988 9.91048 17.3602 10.2335 17.6025C10.3949 17.8447 10.6372 18.0062 10.7987 18.2484C11.4447 18.8137 11.2832 18.6522 12.3329 18.0062L12.8174 17.6025C12.9789 17.5217 13.0596 17.6025 13.4634 17.764C14.0286 18.0062 13.8671 17.6025 14.19 19.3789C14.2708 20.1056 14.4323 19.9441 15.4013 19.9441C16.3702 19.9441 16.5317 20.1056 16.6124 19.4596C16.7739 18.9752 16.8546 18.4907 16.9354 17.9255C17.0968 17.9255 17.9044 17.6025 17.9044 17.6025C17.9851 17.6025 18.954 18.2484 19.1962 18.4099C19.6807 18.8137 19.6808 18.5714 20.4075 17.9255C21.2957 17.0373 21.2957 17.1988 20.6497 16.2298C19.923 15.1801 20.0844 15.5838 20.3266 14.9379C20.3266 14.8571 20.4074 14.4534 20.4882 14.4534C20.5689 14.4534 20.569 14.3727 20.569 14.3727L21.9417 14.1304C22.5876 14.0497 22.4261 13.8882 22.4261 12.9193C22.4261 11.8696 22.5876 11.7888 21.9417 11.7081C20.0038 11.3043 20.6497 11.6273 20.2459 10.7391C20.0845 10.3354 20.0037 10.4969 20.2459 10.1739C20.4882 9.77018 20.7304 9.4472 20.9726 9.04348C21.2956 8.63975 20.9726 8.47826 20.4882 7.99379C20.3267 7.8323 20.1652 7.67081 20.0037 7.50931C19.923 7.42857 19.6808 7.10559 19.4386 7.26708L18.0658 8.15528C17.8235 8.31677 17.9043 8.15528 17.0969 7.91304C16.9354 7.8323 16.9354 7.91304 16.8546 7.67081C16.8546 7.59006 16.8546 7.42857 16.8546 7.26708C16.7739 7.02485 16.6931 6.78261 16.6931 6.54037C16.5316 5.73292 16.5317 5.89441 15.482 5.89441C14.0286 5.89441 14.3515 5.57143 13.9478 7.75155C13.8671 7.91304 13.9479 7.8323 13.8671 7.91304C13.6249 7.99379 13.3825 7.99379 13.1403 8.15528C12.8173 8.31677 12.8981 8.23602 12.5751 8.07453L11.5254 7.26708C11.2024 7.10559 11.0409 7.34782 10.8794 7.50931L9.99123 8.39751C9.82974 8.559 9.66834 8.7205 9.82983 9.04348C10.0721 9.4472 10.3142 9.77018 10.6372 10.1739C10.7987 10.4161 10.7987 10.3354 10.6372 10.7391C10.5565 10.8199 10.4757 11.3043 10.395 11.3851ZM15.4013 9.6087C17.2584 9.6087 18.7118 11.0621 18.7118 12.9193C18.7118 14.6957 17.2584 16.2298 15.4013 16.2298C13.6249 16.2298 12.1714 14.6957 12.1714 12.9193C12.1714 11.0621 13.6249 9.6087 15.4013 9.6087Z" fill="#BFE9F9"/>
</svg>
