<svg width="40" height="40" viewBox="0 0 40 40" fill="none" xmlns="http://www.w3.org/2000/svg">
<path d="M40 20C40 31.0457 31.0457 40 20 40C8.95431 40 0 31.0457 0 20C0 8.95431 8.95431 0 20 0C31.0457 0 40 8.95431 40 20Z" fill="#61D6F2"/>
<path fill-rule="evenodd" clip-rule="evenodd" d="M28.1736 25.3349C28.9743 25.1685 29.7647 25.678 29.9311 26.4788C30.1078 27.2795 29.5879 28.0699 28.7871 28.2362C27.9864 28.413 27.1961 27.9035 27.0297 27.1027C26.8633 26.2916 27.3729 25.5116 28.1736 25.3349ZM22.8076 9.44486C23.5251 9.29927 26.1561 8.63373 26.6761 8.63373C26.9153 8.59213 27.1441 8.64412 27.3417 8.76891C27.5392 8.9041 27.6952 9.11209 27.7472 9.36167L32.0213 29.5465C32.0837 29.8065 32.0213 30.0561 31.8965 30.2537C31.7613 30.4617 31.5533 30.6177 31.3038 30.6697C30.5862 30.8152 27.9552 31.4808 27.4352 31.4808C27.1961 31.5224 26.9673 31.4704 26.7697 31.3456C26.5721 31.2104 26.4161 31.0024 26.3641 30.7529L22.0797 10.568C22.0277 10.308 22.0901 10.0584 22.2148 9.86083C22.35 9.65285 22.558 9.50726 22.8076 9.44486ZM26.7697 9.32007L22.9532 10.1312C22.8908 10.1416 22.8388 10.1832 22.7972 10.2352C22.766 10.2872 22.7556 10.36 22.766 10.4224L27.0505 30.6073C27.0609 30.6697 27.1025 30.7321 27.1545 30.7633C27.2065 30.7945 27.2689 30.8049 27.3313 30.7945L31.1582 29.9833C31.2206 29.9729 31.2726 29.9313 31.3038 29.8793C31.3454 29.8273 31.3558 29.7649 31.3454 29.6921L27.0609 9.50726C27.0505 9.44486 27.0089 9.39287 26.9569 9.36167C26.9049 9.32007 26.8425 9.30967 26.7697 9.32007ZM8.89345 8.49854H12.8036C13.0635 8.49854 13.2923 8.61293 13.4691 8.77931C13.6355 8.9457 13.7395 9.18488 13.7395 9.44486V30.0769C13.7395 30.3369 13.6355 30.5761 13.4691 30.7425C13.2923 30.9192 13.0635 31.0232 12.8036 31.0232H8.89345C8.63347 31.0232 8.40469 30.9192 8.2279 30.7425C8.06151 30.5761 7.95752 30.3369 7.95752 30.0769V9.44486C7.95752 9.18488 8.06151 8.9457 8.2279 8.77931C8.40469 8.61293 8.63347 8.49854 8.89345 8.49854ZM10.8485 24.9085C11.826 24.9085 12.6268 25.6988 12.6268 26.6868C12.6268 27.6643 11.826 28.4546 10.8485 28.4546C9.87098 28.4546 9.07024 27.6643 9.07024 26.6868C9.07024 25.6988 9.87098 24.9085 10.8485 24.9085ZM16.1105 8.49854H20.0206C20.2806 8.49854 20.5094 8.61293 20.6862 8.77931C20.8525 8.9457 20.9565 9.18488 20.9565 9.44486V30.0769C20.9565 30.3369 20.8525 30.5761 20.6862 30.7425C20.5094 30.9192 20.2806 31.0232 20.0206 31.0232H16.1105C15.8505 31.0232 15.6217 30.9192 15.445 30.7425C15.2786 30.5761 15.1746 30.3369 15.1746 30.0769V9.44486C15.1746 9.18488 15.2786 8.9457 15.445 8.77931C15.6217 8.61293 15.8505 8.49854 16.1105 8.49854ZM18.0656 24.9085C19.0431 24.9085 19.8438 25.6988 19.8438 26.6868C19.8438 27.6643 19.0431 28.4546 18.0656 28.4546C17.088 28.4546 16.2873 27.6643 16.2873 26.6868C16.2873 25.6988 17.088 24.9085 18.0656 24.9085Z" fill="white"/>
</svg>
